<svg width="22" height="22" viewBox="0 0 22 22" fill="none" xmlns="http://www.w3.org/2000/svg">
<path d="M11.3652 18.1973C11.2507 18.2546 11.1289 18.2832 11 18.2832C10.8711 18.2832 10.7493 18.2546 10.6348 18.1973C10.291 18.0254 9.78255 17.7246 9.10938 17.2949C8.4362 16.8509 7.7666 16.2923 7.10059 15.6191C6.43457 14.946 5.84375 14.151 5.32812 13.2344C4.82682 12.3177 4.57617 11.2793 4.57617 10.1191C4.57617 9.24544 4.74805 8.41471 5.0918 7.62695C5.42122 6.85352 5.87598 6.17676 6.45605 5.59668C7.03613 5.0166 7.72005 4.55469 8.50781 4.21094C9.28125 3.88151 10.112 3.7168 11 3.7168C11.888 3.7168 12.7188 3.88151 13.4922 4.21094C14.2799 4.55469 14.9639 5.0166 15.5439 5.59668C16.124 6.17676 16.5788 6.85352 16.9082 7.62695C17.252 8.41471 17.4238 9.24544 17.4238 10.1191C17.4238 11.2793 17.1732 12.3177 16.6719 13.2344C16.1562 14.151 15.5654 14.946 14.8994 15.6191C14.2334 16.2923 13.5638 16.8509 12.8906 17.2949C12.2174 17.7246 11.709 18.0254 11.3652 18.1973ZM11 12.8691C11.7591 12.8691 12.4072 12.6006 12.9443 12.0635C13.4814 11.5264 13.75 10.8783 13.75 10.1191C13.75 9.36003 13.4814 8.71191 12.9443 8.1748C12.4072 7.6377 11.7591 7.36914 11 7.36914C10.2409 7.36914 9.59277 7.6377 9.05566 8.1748C8.51855 8.71191 8.25 9.36003 8.25 10.1191C8.25 10.8783 8.51855 11.5264 9.05566 12.0635C9.59277 12.6006 10.2409 12.8691 11 12.8691Z" fill="#EE1D23"/>
</svg>
