<svg width="56" height="56" viewBox="0 0 56 56" fill="none" xmlns="http://www.w3.org/2000/svg">
<rect width="56" height="56" rx="15" fill="#212020"/>
<path fill-rule="evenodd" clip-rule="evenodd" d="M28.7673 12.0063L43.5102 12L43.6698 12.1437C43.7802 12.2375 43.8477 12.3813 43.8722 12.5688C43.8968 12.725 43.909 13.8438 43.8784 17.2688L43.4796 17.6312L28.7428 17.6L28.4483 17.2562L28.436 12.3938L28.7673 12.0063ZM33.6019 13.875C33.4914 13.9875 33.4239 14.125 33.4239 14.25C33.4178 14.3812 33.473 14.5 33.6019 14.6312L33.7859 14.8187C41.1973 14.8187 41.7862 14.8 41.9458 14.725C42.0685 14.6625 42.1482 14.5562 42.1789 14.425C42.2157 14.3 42.2096 14.15 42.1666 14.0375C42.1298 13.9375 42.0439 13.8188 41.9764 13.775C41.8783 13.7062 41.0991 13.6875 37.8168 13.6875L33.7798 13.6938L33.6019 13.875ZM16.0245 28.1938C16.0551 28.1938 16.0797 28.225 16.0735 28.2687C16.0674 28.3125 16.0183 28.5625 15.9692 28.8312C15.914 29.0938 15.8404 29.6437 15.8036 30.05C15.7606 30.5562 15.7606 31.0187 15.8036 31.55C15.8404 31.9688 15.914 32.5312 15.9692 32.8C16.0183 33.0625 16.0735 33.3187 16.0919 33.3625C16.1042 33.4062 16.1042 33.4375 16.0981 33.4375C16.0919 33.4375 15.4784 33.325 14.7361 33.1938C13.7912 33.0188 13.3372 32.9062 13.2329 32.825C13.1409 32.7563 13.055 32.6062 13.0243 32.4625C12.9998 32.3312 12.9875 31.5 13.0182 29.0063L13.1716 28.85C13.3004 28.7125 13.4967 28.6625 14.644 28.45C15.368 28.3125 15.9876 28.2 16.0245 28.1938ZM23.5585 40.9C23.6321 40.9187 23.9389 40.9813 24.2457 41.0438C24.6567 41.125 25.0923 41.1562 25.9635 41.1562C26.9206 41.1562 27.2519 41.1313 27.8348 41.0125C28.2213 40.9375 28.5403 40.8812 28.5403 40.8937C28.5464 40.9 28.4851 41.2437 28.4115 41.6562C28.3378 42.0688 28.2274 42.6875 28.1661 43.0312C28.0863 43.475 28.0127 43.7062 27.7734 44H25.9942C24.2334 44 24.2088 44 24.0555 43.8625C23.9205 43.7375 23.8775 43.575 23.6567 42.375C23.5278 41.6375 23.4174 40.9938 23.4235 40.95C23.4297 40.8938 23.4787 40.875 23.5585 40.9ZM24.2027 17.625H27.436L27.5219 17.825C27.5709 17.9437 27.7366 18.1562 28.1722 18.5875L28.5403 20.7563L28.3869 20.7188C28.301 20.7 27.9022 20.625 27.4973 20.55C26.8777 20.4438 26.5832 20.4313 25.6874 20.4563C24.9389 20.4812 24.4358 20.5312 24.0309 20.6187C23.7058 20.6875 23.4297 20.7312 23.4174 20.7125C23.399 20.6937 23.491 20.0687 23.626 19.325C23.8469 18.1 23.8837 17.9563 24.0371 17.8L24.2027 17.625ZM29.5465 18.75H36.1418C39.7739 18.75 42.7372 18.7687 42.7372 18.7937C42.7372 18.8187 42.2464 20.0813 40.5592 24.3438H31.7429L30.749 21.8125C30.2029 20.4187 29.7121 19.1625 29.6508 19.0125L29.5465 18.75ZM18.319 20.1938C18.4908 20.1938 18.7546 20.35 20.8345 21.8125L20.3007 22.1875C20.0001 22.3875 19.5277 22.7625 19.2393 23.0188C18.951 23.2688 18.4969 23.7438 18.2331 24.0688C17.9632 24.3938 17.6135 24.8562 17.1717 25.5312L16.6564 24.7875C16.3742 24.375 16.0122 23.8375 15.8465 23.6C15.687 23.3563 15.552 23.075 15.5459 22.975C15.5336 22.8125 15.687 22.6375 16.8159 21.4875C18.0061 20.2812 18.1166 20.1875 18.319 20.1938ZM25.8653 21.575C26.2519 21.5687 26.804 21.5938 27.0924 21.6313C27.3807 21.6625 27.847 21.75 28.1354 21.825C28.4237 21.8938 28.9146 22.0562 29.798 22.4062L30.1968 23.4375C30.4177 24.0063 30.5833 24.4688 30.5772 24.475C30.5649 24.475 30.4422 24.55 30.3011 24.6438C30.1539 24.7375 29.9698 24.9062 29.8901 25.0188C29.8042 25.1313 29.6937 25.35 29.6385 25.5C29.5649 25.7188 29.5465 26.0437 29.5465 26.875C29.5465 27.6812 29.571 28.0438 29.6385 28.25C29.6876 28.4062 29.8348 28.6562 29.9575 28.8125C30.0925 28.9625 30.3257 29.15 30.4974 29.2313C30.6692 29.3125 30.8962 29.375 31.203 29.375V29.8C31.203 30.0312 31.2459 30.35 31.295 30.5C31.3441 30.6562 31.4913 30.9062 31.614 31.0625C31.749 31.2125 31.9822 31.4 32.1539 31.4813C32.3257 31.5625 32.5527 31.625 32.8595 31.625L32.8656 35.5938L33.1417 35.8C33.289 35.9125 33.4117 36.0312 33.4117 36.0625C33.4117 36.1 33.289 36.2875 33.1417 36.4875C32.9945 36.6812 32.6386 37.0875 32.3503 37.375C32.0681 37.6688 31.614 38.0688 31.3502 38.2625C31.0864 38.4563 30.6754 38.7312 30.4361 38.8687C30.2029 39.0063 29.7428 39.2312 29.4238 39.3625C29.1047 39.5 28.5648 39.6812 28.2274 39.7687C27.89 39.8625 27.3992 39.9625 27.1415 40C26.8777 40.0375 26.3378 40.0625 25.9451 40.0625C25.5463 40.0625 24.9573 40.025 24.6383 39.975C24.3193 39.9188 23.7978 39.8125 23.491 39.725C23.1781 39.6375 22.626 39.4312 22.264 39.2687C21.8959 39.1062 21.3253 38.7812 20.9878 38.5562C20.6504 38.325 20.1841 37.9625 19.9449 37.75C19.7117 37.5375 19.3436 37.1625 19.1289 36.9188C18.9203 36.6688 18.5951 36.2437 18.4172 35.9688C18.2331 35.6938 17.9755 35.2437 17.8405 34.9688C17.7055 34.6938 17.5092 34.2188 17.3987 33.9062C17.2944 33.6 17.1533 33.1063 17.092 32.8125C17.0245 32.525 16.9447 31.9625 16.9079 31.5625C16.8588 31.0438 16.8588 30.6375 16.9079 30.0938C16.9447 29.6812 17.0306 29.1063 17.0981 28.8125C17.1656 28.525 17.276 28.1 17.3497 27.875C17.4172 27.6562 17.6012 27.2063 17.7485 26.875C17.8957 26.55 18.2025 26 18.4233 25.6562C18.6974 25.2396 19.0798 24.7812 19.5706 24.2812C20.043 23.8 20.5154 23.3875 20.8651 23.1562C21.1719 22.95 21.6811 22.6562 22.0002 22.4937C22.3192 22.3312 22.8468 22.1187 23.1659 22.0125C23.4849 21.9125 23.9818 21.7812 24.2702 21.7312C24.5585 21.675 24.8776 21.6187 24.9757 21.6062C25.08 21.5938 25.4788 21.5813 25.8653 21.575ZM23.4665 23.7563C23.4726 23.825 23.5156 23.9625 23.5646 24.0625C23.6199 24.175 23.7364 24.2812 23.8407 24.3125C23.9818 24.3625 24.08 24.3562 24.2395 24.2812C24.3561 24.2312 24.4849 24.1313 24.5156 24.0625C24.5524 23.9937 24.577 23.8625 24.577 23.7688C24.5831 23.6687 24.5156 23.525 24.4236 23.425C24.307 23.2937 24.215 23.25 24.0309 23.25C23.8407 23.25 23.7548 23.2938 23.626 23.4438C23.534 23.55 23.4603 23.6875 23.4665 23.7563ZM21.2026 25.0063C20.9817 25.1688 20.6136 25.5062 20.3805 25.7625C20.1412 26.0125 19.8344 26.4062 19.6933 26.625C19.5522 26.85 19.3559 27.2188 19.2516 27.4375C19.1534 27.6625 19 28.0688 18.9203 28.3438C18.8344 28.6187 18.7178 29.1125 18.6626 29.4375C18.6074 29.7687 18.5583 30.3188 18.5522 30.6688C18.5338 31.2688 18.5399 31.3125 18.6871 31.4688C18.8037 31.5875 18.9019 31.6313 19.0737 31.6313C19.2332 31.625 19.3497 31.5812 19.4479 31.4875C19.5645 31.3625 19.5952 31.2563 19.632 30.6875C19.6565 30.3312 19.7179 29.8062 19.7608 29.5312C19.8099 29.2563 19.9142 28.8375 19.9939 28.5938C20.0798 28.3563 20.2394 27.9625 20.3621 27.7188C20.4786 27.4812 20.7118 27.1 20.8713 26.8813C21.0369 26.6625 21.3498 26.325 21.5707 26.1375C21.7916 25.95 22.1474 25.6938 22.3683 25.5625C22.5891 25.4375 22.7977 25.2937 22.8345 25.2437C22.8775 25.1937 22.9266 25.0875 22.9511 25C22.9757 24.9125 22.9573 24.7688 22.9082 24.6625C22.8652 24.5688 22.7548 24.4437 22.6628 24.4C22.5646 24.35 22.4542 24.3125 22.4174 24.3125C22.3744 24.3125 22.1719 24.4 21.9695 24.5125C21.767 24.6187 21.4234 24.8375 21.2026 25.0063ZM24.669 28.6688C24.5033 28.775 24.2579 28.9812 24.1352 29.1187C24.0064 29.2625 23.8469 29.4875 23.7794 29.625C23.7119 29.7625 23.6137 30.05 23.5585 30.2687C23.491 30.5312 23.4726 30.775 23.4972 31.0187C23.5156 31.2125 23.5953 31.5375 23.6689 31.7375C23.7426 31.9312 23.9082 32.2312 24.0371 32.3937C24.1659 32.5562 24.3868 32.7687 24.534 32.8687C24.6751 32.9688 24.9573 33.1125 25.1598 33.1875C25.4666 33.3 25.6199 33.3187 26.0801 33.3C26.5095 33.2812 26.7059 33.2375 26.9697 33.1125C27.1537 33.025 27.4544 32.8125 27.6384 32.65C27.8593 32.4438 28.0311 32.2062 28.1722 31.9062C28.3194 31.6125 28.3931 31.3438 28.4237 31.0625C28.4421 30.8375 28.4299 30.5125 28.3869 30.3312C28.3501 30.15 28.2581 29.8687 28.1845 29.7062C28.1047 29.5437 27.9084 29.2625 27.7366 29.075C27.5403 28.8625 27.2887 28.6688 27.031 28.5438C26.6813 28.3688 26.5586 28.3438 26.0494 28.3312C25.7058 28.325 25.3684 28.35 25.2212 28.3937C25.0862 28.4375 24.8408 28.5625 24.669 28.6688ZM30.9514 25.5H41.3261L41.6635 25.8062V26.8687C41.6635 27.9125 41.6635 27.9312 41.5102 28.0938C41.3629 28.25 41.3322 28.2563 40.0377 28.25L40.0254 29.2188C40.007 30.15 40.0009 30.1875 39.7003 30.5063H36.1725C32.7675 30.5063 32.6386 30.5 32.4914 30.3875C32.3441 30.2688 32.338 30.2375 32.2767 28.2812L31.5834 28.25C30.9269 28.225 30.8778 28.2125 30.7674 28.0625C30.657 27.925 30.6447 27.8125 30.6508 26.8687C30.657 25.8687 30.6631 25.825 30.8042 25.6687L30.9514 25.5ZM33.9638 31.625L38.3505 31.6562L38.3812 35L36.7247 36.2812L36.7124 36.8937C36.694 37.475 36.6879 37.5188 36.5284 37.6625C36.4241 37.75 36.2768 37.8125 36.1602 37.8125C36.0191 37.8125 35.9087 37.7625 35.786 37.6437C35.6265 37.475 35.6142 37.4375 35.6142 36.2812L33.9638 35.0312V31.625ZM17.1717 36.0562L17.5705 36.6688C17.8466 37.0938 18.227 37.5438 18.8037 38.125C19.362 38.6938 19.8283 39.0938 20.2025 39.3438C20.5154 39.55 20.767 39.7313 20.767 39.75C20.767 39.7687 20.2578 40.1375 19.6381 40.5812C18.6749 41.2562 18.4663 41.375 18.2699 41.375C18.0552 41.375 17.9693 41.3 16.7975 40.1063C15.6563 38.9438 15.5582 38.825 15.552 38.6187C15.552 38.4438 15.6318 38.275 15.9324 37.8375C16.141 37.5312 16.5091 37.0063 16.7423 36.6688L17.1717 36.0562ZM34.3933 36.7687C34.4608 36.7812 34.4915 36.9062 34.516 37.2812C34.5467 37.6562 34.5896 37.85 34.7123 38.0625C34.7982 38.2188 34.9762 38.4375 35.105 38.55C35.2338 38.6625 35.4792 38.8 35.651 38.8563C35.8535 38.9188 36.0744 38.9437 36.2952 38.925C36.4793 38.9062 36.6817 38.875 36.737 38.8563C36.7983 38.8313 36.8474 38.8375 36.8474 38.8625C36.8474 38.8875 36.2891 39.475 35.6081 40.1688C34.5958 41.2 34.332 41.4375 34.1908 41.4375C34.0865 41.4375 33.8227 41.2938 33.4546 41.0438C33.1479 40.8188 32.5527 40.4 31.387 39.5625L31.5834 39.4438C31.6938 39.375 31.9515 39.1938 32.1539 39.0375C32.3564 38.875 32.7797 38.4875 33.0926 38.1688C33.4055 37.8563 33.8105 37.4062 33.9822 37.1688C34.1663 36.925 34.3381 36.7562 34.3933 36.7687Z" fill="white"/>
</svg>
