<svg width="56" height="56" viewBox="0 0 56 56" fill="none" xmlns="http://www.w3.org/2000/svg">
<rect width="56" height="56" rx="15" fill="#212020"/>
<path d="M26.507 13.2569C26.9652 12.1086 27.3902 11.1261 27.4566 11.0863V11.0797C27.523 11.0398 27.6758 11 27.8086 11C27.9348 11 28.0941 11.0332 28.1605 11.0797C28.227 11.1261 28.652 12.1086 29.9734 15.4143L32.2578 15.5603C34.2168 15.6931 34.5688 15.7263 34.675 15.8258C34.7414 15.8922 34.8211 16.0117 34.8543 16.0914C34.8875 16.1777 34.8941 16.3237 34.8676 16.4233C34.8344 16.5627 34.3496 17.0008 33.0746 18.0496C32.1117 18.8462 31.3281 19.5232 31.3281 19.5631C31.3281 19.6029 31.5672 20.5654 31.8594 21.7005C32.1516 22.8422 32.3906 23.8579 32.3906 23.9574C32.3906 24.0636 32.3242 24.2163 32.2246 24.3093C32.1184 24.4199 31.9922 24.4752 31.8461 24.4752C31.6734 24.4752 31.202 24.203 29.7543 23.2804C28.7184 22.6232 27.8551 22.0855 27.8285 22.0855C27.7953 22.0855 26.9254 22.6232 25.8828 23.2804C24.4352 24.1898 23.9371 24.4752 23.7777 24.4752C23.6316 24.4752 23.4988 24.4155 23.3926 24.3093C23.2996 24.2163 23.2266 24.0636 23.2266 23.9574C23.2266 23.8579 23.4656 22.8422 23.7578 21.7005C24.05 20.5654 24.2891 19.6029 24.2891 19.5631C24.2891 19.5232 23.5055 18.8462 22.5426 18.0496C21.2676 17.0008 20.7828 16.5627 20.7496 16.4233C20.723 16.3237 20.7297 16.1777 20.7629 16.0914C20.7961 16.0117 20.8758 15.8922 20.9422 15.8325C21.0484 15.7329 21.407 15.6931 23.3262 15.5736C24.568 15.4939 25.6039 15.4077 25.6305 15.3877C25.6504 15.3678 26.0488 14.4053 26.507 13.2569Z" fill="white"/>
<path d="M16.6523 18.3417C16.9113 17.6845 17.1902 17.0804 17.2699 16.9941C17.3629 16.8946 17.4824 16.8481 17.6418 16.8481C17.8078 16.8481 17.9273 16.8946 18.027 16.9941C18.1066 17.0804 18.3922 17.6978 19.1492 19.6029L19.7469 19.6494C20.0723 19.6759 20.7098 19.7224 21.168 19.7556C21.9449 19.8153 22.0047 19.8286 22.1508 19.9945C22.2305 20.0875 22.2969 20.2401 22.2969 20.3331C22.2969 20.426 22.277 20.5521 22.2504 20.6119C22.2172 20.6783 21.7324 21.1097 21.168 21.581C20.6035 22.0523 20.132 22.4572 20.1187 22.4838C20.1055 22.5037 20.2516 23.1277 20.4375 23.8645C20.7496 25.1324 20.7629 25.2253 20.6699 25.4112C20.6168 25.524 20.4906 25.6435 20.391 25.6833C20.2848 25.7165 20.1387 25.7364 20.059 25.7165C19.9727 25.6966 19.4148 25.3647 18.8105 24.9797C18.2063 24.5947 17.6883 24.2827 17.6484 24.2827C17.6152 24.2827 17.0906 24.5947 16.4863 24.9797C15.882 25.3647 15.3242 25.6966 15.2445 25.7165C15.1582 25.7364 14.9922 25.7099 14.8793 25.6501C14.7531 25.5904 14.6336 25.4643 14.6004 25.3581C14.5539 25.2187 14.6137 24.8801 14.866 23.8844C15.0453 23.1742 15.1914 22.5635 15.1914 22.5236C15.1914 22.4838 14.7398 22.0855 14.1887 21.6275C13.6375 21.1695 13.1395 20.738 13.093 20.665C13.0398 20.592 13 20.4526 13 20.3463C13 20.2468 13.0664 20.0875 13.1527 19.9945C13.2988 19.8219 13.3187 19.8153 14.6934 19.7224C15.4637 19.6693 16.1078 19.6029 16.1344 19.583C16.1543 19.5564 16.3934 18.9988 16.6523 18.3417Z" fill="white"/>
<path d="M36.9727 18.3417C37.2316 17.6845 37.5105 17.0804 37.5902 16.9941C37.6832 16.8946 37.8027 16.8481 37.9621 16.8481C38.1281 16.8481 38.2477 16.8946 38.3473 16.9941C38.427 17.0804 38.7125 17.6978 39.4695 19.6029L40.0672 19.6494C40.3926 19.6759 41.0301 19.7224 41.4883 19.7556C42.2652 19.8153 42.325 19.8286 42.4711 19.9945C42.5508 20.0875 42.6172 20.2468 42.6172 20.3463C42.6172 20.4526 42.5773 20.592 42.5242 20.665C42.4777 20.738 41.9863 21.1695 41.4285 21.6275C40.8773 22.0855 40.4258 22.4838 40.4258 22.5236C40.4258 22.5635 40.5785 23.1742 40.7578 23.8844C41.0566 25.0925 41.0766 25.1921 40.9836 25.3913C40.9305 25.5174 40.8109 25.6435 40.7113 25.6833C40.6051 25.7165 40.459 25.7364 40.3793 25.7165C40.293 25.6966 39.7352 25.3647 39.1309 24.9797C38.5266 24.5947 38.0086 24.2827 37.9688 24.2827C37.9289 24.2827 37.4109 24.5947 36.8066 24.9797C36.2023 25.3647 35.6445 25.6966 35.5648 25.7165C35.4785 25.7364 35.3324 25.7165 35.2328 25.6833C35.1266 25.6435 35.0004 25.5174 34.9473 25.4112C34.8543 25.2253 34.8676 25.1324 35.1863 23.8645C35.3855 23.0812 35.4984 22.4904 35.4652 22.4506C35.4387 22.4041 34.9672 21.9992 34.416 21.5478C33.8715 21.0964 33.4 20.6783 33.3734 20.6119C33.3402 20.5521 33.3203 20.426 33.3203 20.3331C33.3203 20.2401 33.3867 20.0875 33.473 19.9945C33.6191 19.8219 33.6391 19.8153 35.0137 19.7224C35.784 19.6693 36.4281 19.6029 36.4547 19.583C36.4746 19.5564 36.7137 18.9988 36.9727 18.3417Z" fill="white"/>
<path d="M25.6504 35.2089C25.9426 35.1492 26.4207 35.0695 26.7129 35.0363C27.0051 35.0031 27.6359 34.9898 28.1074 35.0031C28.5789 35.023 29.243 35.0828 29.5684 35.1359C29.9004 35.1956 30.4383 35.3151 30.7637 35.408C31.0957 35.501 31.6336 35.7001 31.959 35.8395C32.291 35.9789 32.7957 36.2378 33.0879 36.4104C33.3801 36.5763 33.8449 36.8817 34.1172 37.0875C34.3895 37.2866 34.8676 37.6915 35.173 37.9902C35.4785 38.2823 35.9633 38.8333 36.2488 39.2183C36.541 39.6033 36.9527 40.2604 37.1652 40.6786C37.3844 41.0968 37.6699 41.754 37.7961 42.139C37.9289 42.524 38.1016 43.1613 38.1746 43.5662C38.2809 44.1371 38.2941 44.3428 38.241 44.5088C38.2012 44.6283 38.0883 44.7876 37.9887 44.8606C37.8027 45 37.7563 45 27.8086 45C17.8609 45 17.8145 45 17.6352 44.8606C17.5289 44.7876 17.416 44.6283 17.3762 44.5088C17.323 44.3428 17.3363 44.1371 17.4426 43.5662C17.5156 43.1613 17.6883 42.524 17.8211 42.139C17.9539 41.754 18.193 41.1699 18.359 40.8446C18.525 40.5127 18.7973 40.0414 18.9633 39.7825C19.1227 39.5236 19.448 39.0922 19.6738 38.82C19.8996 38.5478 20.3047 38.123 20.5637 37.8708C20.8227 37.6251 21.2543 37.2667 21.5199 37.0742C21.7789 36.8817 22.1773 36.6095 22.3965 36.4834C22.6156 36.3506 23.0473 36.1183 23.3594 35.9789C23.6715 35.8329 24.1961 35.6271 24.5215 35.5143C24.8535 35.408 25.3582 35.2686 25.6504 35.2089Z" fill="white"/>
<path d="M25.8828 25.8891C26.1949 25.7431 26.6598 25.5771 26.9121 25.5174C27.1711 25.4643 27.5496 25.4178 27.7621 25.4178C27.968 25.4112 28.373 25.4576 28.6586 25.5174C28.9375 25.5705 29.4223 25.7431 29.7344 25.8891C30.1727 26.1015 30.4117 26.2741 30.8035 26.6658C31.1688 27.0308 31.3746 27.3163 31.5738 27.7013C31.7199 27.9934 31.8926 28.4713 31.959 28.7634C32.0453 29.1617 32.0652 29.4537 32.0387 29.925C32.0188 30.2835 31.9457 30.7415 31.866 30.9871C31.793 31.2261 31.6203 31.6111 31.4809 31.8501C31.3414 32.0824 31.0359 32.474 30.7969 32.713C30.5113 32.9984 30.1793 33.2374 29.834 33.4233C29.5418 33.5759 29.1102 33.7485 28.8711 33.8083C28.6121 33.8813 28.1871 33.9278 27.8086 33.9278C27.4102 33.9278 27.0184 33.8813 26.7461 33.8083C26.507 33.7485 26.1352 33.6025 25.916 33.4963C25.6969 33.3834 25.3449 33.1578 25.1258 32.9852C24.9133 32.8192 24.6012 32.5006 24.4352 32.2815C24.2758 32.0625 24.05 31.704 23.9504 31.485C23.8441 31.2659 23.7113 30.861 23.6516 30.5888C23.5652 30.2237 23.552 29.9184 23.5785 29.4272C23.5984 29.0023 23.6648 28.6173 23.7578 28.3651C23.8309 28.146 23.9902 27.7876 24.1098 27.5685C24.2293 27.3495 24.5414 26.9446 24.8203 26.6658C25.2121 26.2741 25.4379 26.1015 25.8828 25.8891Z" fill="white"/>
</svg>
