<svg width="56" height="56" viewBox="0 0 56 56" fill="none" xmlns="http://www.w3.org/2000/svg">
<rect width="56" height="56" rx="15" fill="#212020"/>
<path fill-rule="evenodd" clip-rule="evenodd" d="M22.4927 14C22.6721 14 22.804 14.0369 22.9465 14.1266C23.052 14.1951 24.4026 15.5135 28.7339 19.8535H16.2832L19.053 17.0797C20.5777 15.5557 21.9177 14.2373 22.0285 14.1529C22.192 14.0316 22.2923 14 22.4927 14V14ZM27.7738 14.0053C27.9479 14 28.0797 14.0369 28.2222 14.1266C28.3277 14.1951 29.6783 15.5135 34.0097 19.8535H31.2135L26.3862 15.0283L26.8188 14.6012C27.0615 14.3691 27.3148 14.1371 27.3886 14.0896C27.4625 14.0422 27.6313 14.0053 27.7738 14.0053ZM24.9354 21.6518C33.2763 21.6465 35.2706 21.6623 35.4869 21.715C35.6346 21.7572 35.9036 21.868 36.0936 21.9682C36.2782 22.0684 36.5526 22.2688 36.7003 22.4164C36.8427 22.5641 37.0379 22.8225 37.1329 22.9965C37.2226 23.1652 37.3386 23.45 37.3809 23.624C37.4494 23.8771 37.4653 24.2463 37.4653 26.9199L34.8696 26.9357C32.5694 26.9516 32.2317 26.9621 31.9521 27.0465C31.778 27.0992 31.4562 27.2205 31.2399 27.326C31.0236 27.4262 30.7018 27.6107 30.5277 27.732C30.3536 27.8586 30.0581 28.1223 29.8682 28.3227C29.6783 28.523 29.4145 28.8658 29.2879 29.082C29.156 29.2982 28.9872 29.6674 28.908 29.8994C28.8289 30.1314 28.7392 30.5217 28.7076 30.7695C28.6706 31.0227 28.6601 31.3918 28.6812 31.6133C28.7023 31.8295 28.755 32.1617 28.7972 32.3516C28.8447 32.5414 28.9661 32.8842 29.0716 33.1162C29.1771 33.3482 29.3459 33.6541 29.4462 33.8018C29.5464 33.9441 29.7469 34.192 29.8946 34.3502C30.037 34.5031 30.3008 34.7352 30.4749 34.8564C30.649 34.983 30.955 35.1676 31.1608 35.2678C31.3665 35.3732 31.72 35.5104 31.9521 35.5736C32.3584 35.6896 32.4586 35.6949 37.4653 35.7266V37.2137C37.4653 38.4002 37.4494 38.7693 37.3809 39.0225C37.3386 39.1965 37.2384 39.4549 37.1593 39.5973C37.0801 39.7396 36.906 39.977 36.7741 40.1246C36.6422 40.2723 36.4154 40.4674 36.2729 40.5623C36.1305 40.6572 35.8509 40.7943 35.2758 41H14.6214L14.4103 40.8682C14.2696 40.7803 14.1641 40.6572 14.0938 40.499C13.9883 40.2617 13.9883 40.1615 14.0147 22.1896L14.1571 21.9945C14.2362 21.8838 14.3787 21.7625 14.4736 21.7203C14.6161 21.6623 16.3887 21.6518 24.9354 21.6518ZM38.378 21.6465H38.5679C38.6734 21.6465 38.8897 21.6834 39.048 21.7309C39.2063 21.7783 39.4542 21.8785 39.6019 21.9523C39.7444 22.0262 39.9923 22.2055 40.1453 22.3531C40.3036 22.5008 40.4988 22.7275 40.5779 22.8594C40.6624 22.9912 40.7942 23.2602 40.8681 23.4658C41 23.8297 41 23.8561 41 26.9199H39.259V25.6121C39.259 24.8949 39.2326 24.0934 39.2063 23.835C39.1799 23.5766 39.0902 23.16 39.0111 22.9121C38.9319 22.6643 38.7578 22.2793 38.6206 22.0525L38.378 21.6465ZM41 28.6602V33.9336L36.7161 33.923C32.4428 33.9125 32.4269 33.9072 32.1368 33.7965C31.9785 33.7279 31.6989 33.5697 31.5195 33.4379C31.3349 33.3061 31.0816 33.0477 30.9497 32.8684C30.8178 32.6891 30.6596 32.4096 30.5963 32.2461C30.5277 32.0615 30.4802 31.7768 30.4644 31.4551C30.4433 31.0754 30.4591 30.8803 30.5277 30.6377C30.5752 30.4637 30.6701 30.2158 30.7387 30.084C30.802 29.9574 30.9867 29.7096 31.1449 29.5303C31.3401 29.3193 31.5617 29.1506 31.8255 29.0135C32.0418 28.8975 32.3584 28.7762 32.5325 28.7393C32.7751 28.6865 33.8356 28.6707 41 28.6602ZM32.3056 30.9066C32.2159 31.0596 32.1895 31.1809 32.2054 31.3496C32.2106 31.4973 32.2739 31.6766 32.3636 31.8137C32.4639 31.9719 32.5747 32.0615 32.7329 32.1248C32.8807 32.1775 33.0389 32.1986 33.1919 32.1775C33.3238 32.1617 33.4874 32.1037 33.5612 32.0457C33.6351 31.993 33.7459 31.8664 33.8145 31.7715C33.8989 31.6396 33.9358 31.5131 33.9358 31.3232C33.9358 31.1387 33.8989 31.0068 33.8092 30.875C33.7459 30.7748 33.6087 30.6377 33.5085 30.5744C33.3766 30.4848 33.25 30.4531 33.0548 30.4531C32.8701 30.4531 32.7382 30.49 32.6063 30.5744C32.5114 30.643 32.3742 30.7906 32.3056 30.9066ZM39.2748 35.7266H41V37.2717C41 38.7799 40.9947 38.8221 40.8681 39.1701C40.7942 39.3652 40.6782 39.6184 40.6043 39.7344C40.5305 39.8504 40.3827 40.0455 40.2772 40.1668C40.1664 40.2881 39.9554 40.4674 39.8024 40.5623C39.6494 40.6572 39.3645 40.7996 39.1693 40.8682C38.9741 40.942 38.7209 41 38.6154 41C38.4729 41 38.4149 40.9789 38.4149 40.9209C38.4149 40.8787 38.436 40.8365 38.4571 40.826C38.4782 40.8154 38.5573 40.7047 38.6312 40.5729C38.6998 40.4463 38.8264 40.1879 38.9055 39.998C38.9847 39.8135 39.0849 39.5023 39.1324 39.3125C39.1957 39.0541 39.2221 38.5848 39.2432 37.3508L39.2748 35.7266Z" fill="white"/>
</svg>
