<svg width="56" height="56" viewBox="0 0 56 56" fill="none" xmlns="http://www.w3.org/2000/svg">
<rect width="56" height="56" rx="15" fill="#212020"/>
<path d="M24.0118 15.8008C24.2075 14.8417 24.3758 14.047 24.3876 14.0313V14.0274C24.3993 14.0117 25.0139 14 27.1044 14L27.1357 14.1644C27.1553 14.2584 27.3432 15.2175 27.946 18.267L28.4354 18.4275C28.7055 18.5175 29.1087 18.6624 29.3357 18.7563C29.5628 18.8464 29.9973 19.0499 30.8625 19.4806L32.5732 18.3336C33.5166 17.6994 34.3309 17.1631 34.3857 17.1357C34.4796 17.0848 34.511 17.1122 35.4348 18.04C35.9555 18.5606 36.3822 19.003 36.3822 19.0186C36.3822 19.0382 35.8459 19.8564 33.9981 22.6319L34.1821 22.9725C34.2839 23.1604 34.3583 23.3209 34.3465 23.3326C34.3348 23.3444 34.1704 23.3326 33.9747 23.3091C33.7554 23.2817 33.3013 23.2778 32.7611 23.2935C32.0682 23.313 31.8098 23.3365 31.4497 23.4109C31.2031 23.4618 30.7803 23.5792 30.5102 23.6693C30.24 23.7593 29.7742 23.9551 29.4728 24.1038C29.1713 24.2526 28.7133 24.5227 27.9852 25.0316L27.6329 24.8006C27.4371 24.6714 27.1435 24.5149 26.9752 24.4522C26.8108 24.3857 26.5524 24.3074 26.3997 24.2761C26.2471 24.2447 25.9417 24.2173 25.7147 24.2173C25.4876 24.2173 25.1666 24.2447 24.9983 24.28C24.8339 24.3152 24.5833 24.3896 24.4424 24.4444C24.3015 24.4992 24.0822 24.6049 23.9531 24.6793C23.8239 24.7536 23.6046 24.9024 23.4676 25.012C23.3267 25.1255 23.1114 25.3369 22.9822 25.4896C22.8491 25.6462 22.6729 25.9281 22.5594 26.1551C22.4537 26.3704 22.3324 26.6875 22.2893 26.8598C22.2462 27.032 22.1993 27.3491 22.1875 27.5644C22.168 27.8423 22.1797 28.0616 22.2267 28.3199C22.2619 28.5157 22.3441 28.8328 22.4146 29.0246C22.485 29.2125 22.6221 29.4865 22.7238 29.6392C22.8217 29.7919 23.0448 30.0463 23.2132 30.2107C23.3815 30.3712 23.6007 30.5591 23.6986 30.6257C23.7965 30.6922 24.0079 30.8136 24.1684 30.8958C24.3289 30.978 24.6185 31.0915 25.1666 31.2559L25.1901 31.757C25.2058 32.0859 25.2527 32.4264 25.3232 32.7318C25.3819 32.9902 25.4915 33.3855 25.5659 33.6126C25.6403 33.8396 25.8125 34.2546 25.9456 34.5325C26.0787 34.8105 26.2862 35.1902 26.4036 35.3742C26.525 35.5582 26.7129 35.8205 26.8264 35.9614C26.94 36.1023 27.2336 36.4312 27.4802 36.6974C27.7386 36.9753 27.9265 37.2063 27.9265 37.2532C27.9265 37.2963 27.7503 38.2241 27.5311 39.3202C27.3158 40.4124 27.1318 41.3441 27.1044 41.4811H24.3837L24.2388 40.7882C24.1566 40.4046 23.9648 39.4768 23.8121 38.7213C23.6594 37.9696 23.5185 37.312 23.4989 37.265C23.4715 37.1945 23.3972 37.1554 23.1779 37.0967C23.0253 37.0536 22.7199 36.9518 22.5046 36.8735C22.2893 36.7991 21.9292 36.6504 21.7021 36.5525C21.4751 36.4507 21.1462 36.2863 20.9661 36.1845C20.7861 36.0788 20.6256 36.0123 20.5942 36.028C20.5708 36.0436 19.7682 36.5721 18.8131 37.2024C17.8618 37.8326 17.0593 38.3572 17.0319 38.3689C17.0045 38.3807 16.5699 37.9736 15.0785 36.4899L15.7361 35.4916C16.0963 34.9436 16.6287 34.1215 16.9144 33.6713C17.2041 33.2211 17.439 32.8375 17.4351 32.8218C17.4351 32.8022 17.3137 32.5478 17.165 32.2542C17.0162 31.9567 16.8244 31.5378 16.7383 31.3225C16.6522 31.1072 16.5191 30.7392 16.4447 30.5004C16.3664 30.2616 16.2803 30.0424 16.2529 30.0072C16.2176 29.9641 15.6226 29.8271 14.2055 29.5413C13.1055 29.3221 12.1698 29.1264 12.1189 29.1068C12.0485 29.0794 12.0289 29.0324 12.0133 28.868C11.9976 28.7545 11.9937 28.1477 12.0133 26.39L12.4047 26.3039C12.62 26.253 13.5517 26.0651 14.4795 25.8811C15.4034 25.6971 16.1863 25.5327 16.2176 25.517C16.2489 25.5014 16.3546 25.243 16.4564 24.9416C16.5582 24.6401 16.7226 24.1899 16.8244 23.9433C16.9262 23.6967 17.1063 23.313 17.2237 23.0938C17.3411 22.8707 17.4351 22.6671 17.4351 22.6436C17.4351 22.6162 17.3764 22.5066 17.3098 22.397C17.2433 22.2874 16.7109 21.481 15.0667 19.0069L16.0258 18.0478C16.5543 17.5232 16.9966 17.0926 17.0123 17.0926C17.0319 17.0926 17.8501 17.6289 20.6256 19.4727L21.1736 19.1909C21.4751 19.0343 21.9252 18.8268 22.1719 18.7289C22.4185 18.6311 22.8139 18.4941 23.0527 18.4236C23.2876 18.3531 23.4872 18.2944 23.4911 18.2944C23.495 18.2905 23.5342 18.1183 23.5772 17.9147C23.6203 17.7111 23.816 16.7599 24.0118 15.8008Z" fill="white"/>
<path d="M31.665 25.333C31.9234 25.2665 32.2248 25.2234 32.5458 25.2078C32.8159 25.1921 33.2309 25.1843 33.4657 25.1921C33.7006 25.1999 34.049 25.2312 34.2369 25.2626C34.4288 25.2939 34.7693 25.38 35.0003 25.4583C35.2352 25.5366 35.5797 25.6775 35.7754 25.7754C35.9711 25.8732 36.2608 26.0416 36.4213 26.1512C36.5818 26.2569 36.8637 26.4722 37.0438 26.6249C37.2238 26.7775 37.5214 27.079 37.6975 27.2943C37.8776 27.5096 38.1281 27.8619 38.2573 28.0772C38.3865 28.2925 38.5627 28.637 38.6488 28.8406C38.7349 29.0441 38.8524 29.373 39.0207 29.9171L39.0246 31.1111C39.0246 32.2503 39.0207 32.3207 38.9306 32.6183C38.8837 32.7905 38.7623 33.1272 38.6644 33.362C38.5705 33.5969 38.457 33.8475 38.4178 33.9101C38.3787 33.9727 38.3395 34.0667 38.3239 34.1137C38.3043 34.192 38.6449 34.5482 40.7666 36.6895C42.1211 38.0558 43.2525 39.2106 43.272 39.2537C43.3073 39.3241 43.1859 39.4572 42.2816 40.3693C41.7179 40.9409 41.2364 41.4067 41.2168 41.4067C41.1973 41.4067 40.0385 40.2676 36.1121 36.3372L35.7284 36.5212C35.517 36.6191 35.2469 36.7404 35.1295 36.7874C35.012 36.8344 34.7928 36.9048 34.6401 36.9479C34.4562 37.0027 34.1626 37.0379 33.7398 37.0575C33.3953 37.0732 32.8237 37.0771 32.4675 37.0614C31.8529 37.034 31.7981 37.0262 31.3518 36.8774C31.0934 36.7913 30.6981 36.6269 30.471 36.5134C30.244 36.3998 29.8995 36.2002 29.7076 36.071C29.508 35.934 29.1596 35.6365 28.9012 35.3781C28.6154 35.0923 28.361 34.7909 28.2044 34.556C28.0674 34.3525 27.8717 34.0158 27.7699 33.8122C27.6681 33.6087 27.5193 33.2564 27.441 33.0293C27.3627 32.8022 27.2688 32.4773 27.2336 32.3051C27.1866 32.0506 27.1788 31.8001 27.1905 30.9741L27.1907 30.9641C27.2101 29.9718 27.2105 29.9511 27.3314 29.5648C27.398 29.3495 27.5232 29.005 27.6133 28.8014C27.6994 28.5979 27.8638 28.2808 27.9734 28.0968C28.083 27.9128 28.2827 27.6231 28.4158 27.4509C28.5489 27.2786 28.8229 26.9772 29.0265 26.7854C29.23 26.5936 29.5628 26.3195 29.7664 26.1825C29.9699 26.0455 30.2596 25.8732 30.4123 25.7989C30.565 25.7206 30.8194 25.607 30.9799 25.5444C31.1404 25.4818 31.4497 25.3878 31.665 25.333Z" fill="white"/>
<path d="M31.6651 27.3726C31.7943 27.3217 32.0213 27.2512 32.174 27.216C32.3854 27.169 33.231 27.169 33.231 27.169C33.231 27.169 34.0335 27.1886 34.3271 27.2864C34.4993 27.3452 34.7616 27.4548 34.9143 27.5331C35.0669 27.6075 35.294 27.7445 35.4232 27.8306C35.5524 27.9206 35.7912 28.1242 35.9556 28.2886C36.12 28.4491 36.351 28.731 36.4723 28.915C36.5898 29.0989 36.7463 29.3808 36.8129 29.5413C36.8834 29.7018 36.9851 30.0032 37.0399 30.2068C37.1222 30.52 37.1378 30.6687 37.1378 31.1463C37.1417 31.6083 37.1222 31.7805 37.0517 32.0663C37.0047 32.2581 36.9108 32.5517 36.8403 32.7122C36.7738 32.8727 36.6172 33.1546 36.4958 33.3386C36.3705 33.5225 36.1435 33.8005 35.983 33.9532C35.8264 34.1097 35.5915 34.3172 35.4623 34.4151C35.3331 34.509 35.0709 34.6656 34.8751 34.7635C34.6794 34.8575 34.3897 34.9749 34.2292 35.0258C33.9591 35.1119 33.873 35.1197 33.1331 35.1158C32.4519 35.1158 32.2875 35.1002 32.037 35.0336C31.8765 34.9906 31.5946 34.877 31.4106 34.787C31.2266 34.697 30.9722 34.5482 30.843 34.4621C30.7138 34.372 30.4868 34.1841 30.338 34.0432C30.1932 33.9023 29.9779 33.6635 29.8604 33.5147C29.7469 33.362 29.5825 33.0919 29.4963 32.9079C29.4102 32.7239 29.3045 32.4343 29.2615 32.262C29.2145 32.0898 29.1597 31.8001 29.1362 31.6161C29.1088 31.4282 29.101 31.0954 29.1127 30.8527C29.1284 30.5591 29.1714 30.3086 29.238 30.0698C29.2967 29.8741 29.4141 29.5765 29.5003 29.4043C29.5864 29.232 29.7312 28.9854 29.8252 28.8562C29.9152 28.7271 30.0757 28.5274 30.1814 28.41C30.2871 28.2925 30.5063 28.0929 30.6668 27.9637C30.8273 27.8345 31.0661 27.674 31.1953 27.5996C31.3245 27.5292 31.5359 27.4274 31.6651 27.3726Z" fill="#212020"/>
</svg>
