<svg width="56" height="56" viewBox="0 0 56 56" fill="none" xmlns="http://www.w3.org/2000/svg">
<rect width="56" height="56" rx="15" fill="#212020"/>
<path fill-rule="evenodd" clip-rule="evenodd" d="M28.0018 12C28.2728 12 28.4015 12.0623 29.1873 12.6158C29.6683 12.948 30.4 13.4254 30.8132 13.6676C31.2264 13.9029 31.9581 14.2973 32.4391 14.5257C32.92 14.7609 33.6246 15.0723 33.9972 15.2176C34.3698 15.356 34.9524 15.5636 35.2843 15.6674C35.6163 15.7712 36.2463 15.9373 36.6731 16.0341C37.0999 16.131 37.6825 16.2486 37.9602 16.2832C38.238 16.3247 38.8883 16.387 39.3964 16.4147C40.1619 16.4562 40.3516 16.4839 40.5006 16.6015C40.6022 16.6776 40.7513 16.8299 40.8326 16.9337C40.9748 17.1274 40.9748 17.1413 40.9952 22.9883C41.0087 28.5932 41.0019 28.8977 40.8664 29.991C40.7919 30.6206 40.6361 31.4925 40.5277 31.9284C40.4126 32.3644 40.2161 33.0079 40.0806 33.347C39.9519 33.686 39.708 34.2188 39.5522 34.5233C39.3896 34.8278 39.0644 35.3536 38.8273 35.6927C38.597 36.0318 38.1228 36.6061 37.7909 36.9659C37.4589 37.3326 36.9237 37.8447 36.6053 38.1146C36.2869 38.3844 35.7247 38.8273 35.3521 39.0971C34.9795 39.367 34.2478 39.8514 33.7262 40.1697C33.2046 40.4949 32.1952 41.0554 31.4906 41.4221C30.7861 41.7889 29.7632 42.294 29.2212 42.5431C28.6047 42.8337 28.1508 43.0067 28.0018 42.9998C27.8528 42.9998 27.3853 42.8199 26.7485 42.5293C26.1863 42.2663 25.2446 41.8027 24.6485 41.4982C24.0523 41.1869 23.1852 40.7163 22.7178 40.4395C22.2503 40.1628 21.5526 39.7199 21.1596 39.45C20.7667 39.1871 20.1909 38.765 19.8725 38.5159C19.5541 38.2668 18.9173 37.6717 18.4499 37.1943C17.9824 36.7168 17.4066 36.0387 17.1763 35.6996C16.9392 35.3606 16.614 34.8278 16.4514 34.5233C16.2956 34.2188 16.0517 33.686 15.923 33.347C15.7875 33.0079 15.5911 32.3644 15.4759 31.9284C15.3675 31.4925 15.2117 30.6206 15.1372 29.991C14.9949 28.8907 14.9881 28.6278 15.0085 22.9883C15.0288 17.252 15.0288 17.1274 15.1643 16.9406C15.2388 16.8437 15.3878 16.6915 15.4895 16.6085C15.6588 16.4839 15.8214 16.4562 16.6072 16.4147C17.1153 16.387 17.7657 16.3247 18.0434 16.2832C18.3212 16.2417 18.8428 16.1448 19.1951 16.0756C19.5473 15.9995 20.157 15.8473 20.5499 15.7297C20.9429 15.612 21.688 15.3422 22.2097 15.1346C22.7313 14.9201 23.5171 14.5672 23.9575 14.3457C24.391 14.1174 25.0753 13.7368 25.475 13.4946C25.8814 13.2455 26.5385 12.8096 26.9518 12.5259C27.6089 12.0692 27.7376 12 28.0018 12V12ZM26.2743 18.8296C25.9763 18.885 25.475 19.0303 25.1566 19.141C24.8382 19.2587 24.3639 19.4593 24.1065 19.5977C23.8491 19.7292 23.4494 19.9645 23.2258 20.1167C23.0023 20.2689 22.7313 20.4696 22.6161 20.5595C22.501 20.6564 22.1623 20.9816 21.8506 21.293C21.539 21.6044 21.1122 22.1234 20.8954 22.4486C20.6787 22.7738 20.3941 23.2582 20.2654 23.5211C20.1299 23.7841 19.9402 24.2408 19.8386 24.5245C19.7438 24.8082 19.6015 25.3064 19.527 25.6316C19.4593 25.9568 19.378 26.6073 19.3576 27.0847C19.3238 27.7282 19.3441 28.1573 19.4254 28.7454C19.4931 29.1814 19.6422 29.8526 19.7641 30.2331C19.8928 30.6137 20.1164 31.1742 20.2654 31.4787C20.4145 31.7831 20.699 32.2744 20.9022 32.565C21.0987 32.8557 21.4577 33.3054 21.7016 33.5615C21.9455 33.8175 22.291 34.1566 22.4807 34.3157C22.6636 34.4818 23.0362 34.7516 23.2936 34.9246C23.551 35.0907 23.9643 35.3329 24.2081 35.4574C24.452 35.582 24.9533 35.7827 25.3259 35.9141C25.6985 36.0387 26.3556 36.1909 26.7824 36.2601C27.3582 36.3431 27.7783 36.3639 28.4083 36.3293C28.8757 36.3085 29.5125 36.2255 29.8309 36.1563C30.1493 36.0802 30.6371 35.9349 30.9148 35.838C31.1926 35.7342 31.6329 35.5405 31.8971 35.4021C32.1613 35.2706 32.6287 34.98 32.9471 34.7586C33.2655 34.5371 33.7736 34.1012 34.0785 33.7829C34.3833 33.4646 34.7017 33.1117 34.7966 33.001C34.8846 32.8903 35.0811 32.6066 35.2301 32.3782C35.3792 32.1499 35.6095 31.7485 35.7382 31.4787C35.8737 31.2088 36.0634 30.759 36.165 30.4753C36.2598 30.1916 36.4021 29.6934 36.4766 29.3682C36.5444 29.043 36.6257 28.3925 36.646 27.9151C36.6798 27.2716 36.6595 26.8425 36.5782 26.2544C36.5105 25.8184 36.3615 25.1472 36.2395 24.7667C36.1108 24.3861 35.9008 23.8394 35.7585 23.5557C35.6163 23.272 35.3792 22.8499 35.2301 22.6216C35.0811 22.3932 34.8304 22.0542 34.6746 21.8604C34.5188 21.6736 34.1869 21.3138 33.9362 21.0647C33.6856 20.8156 33.2452 20.4488 32.9607 20.2482C32.6762 20.0406 32.1952 19.7499 31.8971 19.5977C31.599 19.4455 31.0503 19.2171 30.6777 19.0857C30.3051 18.9611 29.6819 18.8089 29.289 18.7535C28.896 18.6913 28.2863 18.6497 27.9341 18.6567C27.5818 18.6636 27.1821 18.6774 27.0534 18.6913C26.9247 18.7051 26.5724 18.7674 26.2743 18.8296ZM31.3552 24.2062C31.5381 24.2269 31.7684 24.2961 31.8565 24.3653C31.9445 24.4345 32.0732 24.566 32.1478 24.6629C32.2155 24.7597 32.29 24.9604 32.3171 25.1126C32.3374 25.2649 32.3239 25.5001 32.2765 25.6316C32.2223 25.8115 31.5787 26.5104 29.8174 28.3095C27.6563 30.5099 27.3989 30.7452 27.155 30.7867C27.006 30.8144 26.7756 30.8144 26.6469 30.7867C26.4572 30.7521 26.1592 30.4822 25.0753 29.382C23.8965 28.178 23.7407 27.9843 23.7001 27.7421C23.673 27.5899 23.673 27.3546 23.7001 27.2231C23.7272 27.0847 23.8559 26.8771 23.9981 26.7318C24.1404 26.5865 24.3436 26.455 24.4791 26.4274C24.6078 26.3997 24.8382 26.3997 24.9872 26.4274C25.2175 26.4689 25.3869 26.6004 26.9179 28.1573L28.8012 26.2405C29.8309 25.1888 30.7522 24.2892 30.8471 24.2477C30.9419 24.2131 31.1655 24.1923 31.3552 24.2062Z" fill="white"/>
</svg>
