<svg width="56" height="56" viewBox="0 0 56 56" fill="none" xmlns="http://www.w3.org/2000/svg">
<rect width="56" height="56" rx="15" fill="#212020"/>
<path fill-rule="evenodd" clip-rule="evenodd" d="M20.8594 11C20.8823 11 21.8509 11.2231 23.0026 11.4833C24.1543 11.7509 25.1153 11.9889 25.1382 12.0112C25.1611 12.0335 25.0467 12.5762 24.8865 13.2156C24.734 13.855 24.6043 14.4201 24.6043 14.4573C24.6043 14.4945 24.7492 14.606 24.9246 14.6878C25.1077 14.777 25.5272 15.0372 25.8628 15.2751C26.1983 15.5056 26.595 15.8104 26.7399 15.9517C26.8848 16.0855 27.0373 16.2045 27.0831 16.2045C27.1288 16.1971 27.3653 16.0707 27.617 15.9145C27.8687 15.7584 28.3568 15.461 29.3331 14.8662L30.4771 16.6729C31.1025 17.6618 31.6212 18.5019 31.6212 18.5465C31.6212 18.5911 31.1254 18.9257 30.5153 19.29C29.7068 19.7807 29.417 19.9889 29.4551 20.0707C29.478 20.1302 29.5619 20.435 29.6382 20.7399C29.722 21.0447 29.8212 21.6469 29.867 22.0782C29.9127 22.5094 29.9737 22.8811 30.0042 22.9034C30.0348 22.9257 30.5534 23.0596 31.1636 23.1934C31.7737 23.3272 32.3229 23.4611 32.3915 23.4834C32.4907 23.5205 32.4373 23.8179 32.0025 25.6098C31.5068 27.647 31.4915 27.6916 31.3085 27.6767C31.2093 27.6693 30.6297 27.5503 28.9136 27.1563L28.6924 27.5354C28.5704 27.7436 28.311 28.1302 28.1204 28.3979C27.9297 28.6656 27.6246 29.0373 27.1212 29.5875L27.8077 30.6656C28.1814 31.2604 28.4941 31.7585 28.4941 31.7808C28.4941 31.8031 27.6551 32.3236 26.6255 32.9333C25.5958 33.5504 24.734 34.0336 24.6958 34.0188C24.6653 34.0039 24.3526 33.5355 23.9941 32.9704C23.6357 32.4128 23.3306 31.9444 23.3077 31.9295C23.2848 31.9221 22.9416 31.989 22.545 32.0857C22.1484 32.1898 21.4772 32.2938 20.295 32.3756L19.9899 33.595C19.8221 34.2641 19.6543 34.8292 19.6086 34.8441C19.5628 34.8515 18.5865 34.6507 17.4349 34.3831C16.2832 34.1154 15.3298 33.8924 15.3222 33.8775C15.3145 33.8701 15.4289 33.3794 15.5739 32.7846C15.7188 32.1898 15.8484 31.6396 15.8713 31.5578C15.9018 31.4388 15.795 31.3422 15.284 31.0299C14.9332 30.8217 14.4298 30.4648 14.1629 30.2492C13.8959 30.0262 13.6137 29.8031 13.5374 29.7511C13.4078 29.6767 13.2476 29.7436 12.2637 30.3384C11.6459 30.7102 11.1349 30.9853 11.1197 30.9481C11.112 30.9184 10.5858 30.0857 9.96035 29.1042C9.09086 27.7436 8.84679 27.2975 8.91544 27.238C8.96883 27.1934 9.46459 26.8737 10.029 26.5317C10.8756 26.0113 11.0358 25.8849 11.0053 25.7585C10.9824 25.6767 10.8985 25.2975 10.8069 24.9258C10.7154 24.5466 10.6239 23.9518 10.5858 23.5949C10.54 23.0447 10.5095 22.9555 10.3798 22.9257C10.2959 22.9109 9.73153 22.777 9.12137 22.6358C8.5112 22.4945 8.00782 22.3681 8.00019 22.3607C7.99256 22.3458 8.21375 21.4016 8.48832 20.2566C8.7629 19.1116 8.99171 18.1673 8.99934 18.1525C8.99934 18.145 9.58662 18.264 11.6002 18.7101L11.7146 18.487C11.7756 18.3681 11.9891 18.0261 12.1874 17.7361C12.3781 17.4461 12.7137 17.0149 12.9273 16.7844C13.1408 16.5465 13.3162 16.316 13.3162 16.2789C13.3162 16.2417 13.0188 15.7361 12.6451 15.1636C12.2256 14.5019 12.012 14.093 12.0578 14.0558C12.0959 14.0186 12.9196 13.513 13.8883 12.9331C14.8493 12.3457 15.673 11.855 15.7188 11.8402C15.7569 11.8253 16.0772 12.2565 16.4281 12.7993C16.7713 13.342 17.0764 13.8327 17.1145 13.8773C17.1527 13.9517 17.3433 13.9294 17.9306 13.7881C18.3501 13.684 19.0365 13.5725 20.2111 13.4907L20.3026 13.119C20.356 12.9182 20.4857 12.3532 20.6001 11.8699C20.7145 11.3941 20.8289 11 20.8594 11V11ZM18.7696 18.0856C18.556 18.145 18.2357 18.264 18.045 18.3532C17.8543 18.435 17.5569 18.5986 17.3891 18.7101C17.2137 18.8216 16.9162 19.0595 16.7179 19.238C16.5272 19.409 16.2298 19.7287 16.0696 19.9443C15.9094 20.1525 15.6806 20.5168 15.5662 20.7399C15.4518 20.9629 15.2917 21.4016 15.2154 21.7064C15.1239 22.0633 15.0705 22.5243 15.0705 22.9704C15.0705 23.4462 15.1162 23.8551 15.223 24.2194C15.3069 24.5094 15.4747 24.9481 15.5967 25.186C15.7188 25.4165 15.9857 25.8254 16.184 26.0856C16.39 26.3458 16.7484 26.7102 16.9772 26.8812C17.206 27.0596 17.6332 27.3198 17.9306 27.4611C18.2204 27.6024 18.6857 27.7734 18.9603 27.8477C19.273 27.9295 19.7535 27.9741 20.2569 27.9741C20.8823 27.9815 21.1874 27.9444 21.6297 27.8105C21.9425 27.7139 22.4382 27.5206 22.7357 27.3719C23.1018 27.1934 23.4679 26.9183 23.8874 26.5094C24.3831 26.0187 24.5662 25.7733 24.856 25.2009C25.0543 24.8142 25.2678 24.264 25.3289 23.9741C25.3899 23.6915 25.4433 23.2529 25.4433 23.0075C25.4433 22.7622 25.4051 22.3458 25.3594 22.0782C25.3136 21.8105 25.1916 21.3793 25.0848 21.1116C24.978 20.8439 24.7416 20.4127 24.5662 20.1451C24.3907 19.8774 24.0094 19.4462 23.7196 19.1934C23.384 18.896 22.9645 18.6134 22.5831 18.4276C22.2475 18.2714 21.767 18.093 21.5153 18.0335C21.2636 17.974 20.8136 17.9146 20.5238 17.8922C20.2264 17.8699 19.7992 17.8848 19.5704 17.9146C19.3416 17.9517 18.9755 18.0261 18.7696 18.0856ZM40.8804 17.4982C40.972 17.5205 41.4448 17.632 41.9406 17.7435C42.6194 17.8922 42.833 17.974 42.833 18.0558C42.833 18.1227 42.7643 18.4573 42.6804 18.8068C42.5965 19.1562 42.5355 19.4387 42.5431 19.4462C42.5584 19.4462 42.8025 19.6023 43.0999 19.7882C43.3974 19.9815 43.7177 20.2194 44.0152 20.5094L44.6635 20.1079C45.0219 19.8923 45.327 19.7213 45.3499 19.7287C45.3728 19.7436 45.6397 20.1451 45.9448 20.6209C46.3261 21.2157 46.4711 21.5131 46.4253 21.58C46.3795 21.6246 46.0897 21.8179 45.777 22.0038C45.3651 22.2417 45.2126 22.3681 45.2431 22.4499C45.266 22.5094 45.3346 22.8068 45.3956 23.1042C45.4567 23.3941 45.5024 23.751 45.5024 24.1228L46.2651 24.2938C46.9058 24.4276 47.0202 24.4797 46.9973 24.5912C46.9821 24.6581 46.8753 25.1042 46.7609 25.5726C46.6541 26.041 46.5473 26.4722 46.5321 26.5243C46.5016 26.5912 46.349 26.5763 45.8685 26.4648C45.5177 26.383 45.1745 26.2938 45.1058 26.2789C45.0067 26.2492 44.9075 26.3458 44.7473 26.6358C44.6253 26.844 44.3889 27.1711 43.9084 27.6916L44.3279 28.3607C44.5567 28.7325 44.7321 29.0299 44.7245 29.0373C44.7092 29.0373 44.305 29.2827 43.8245 29.5726C43.344 29.8626 42.9169 30.108 42.8711 30.108C42.8253 30.108 42.627 29.8403 42.4135 29.5132C42.1999 29.1786 41.9787 28.9109 41.9177 28.9184C41.8567 28.9184 41.5974 28.9704 41.3457 29.0299C41.094 29.0894 40.7355 29.1414 40.2016 29.1414L40.0338 29.8849C39.9347 30.2938 39.8432 30.6284 39.8203 30.6284C39.7974 30.6284 39.3093 30.5243 38.7372 30.3905C38.1576 30.2641 37.6771 30.16 37.6694 30.1526C37.6618 30.1451 37.7228 29.8626 37.8067 29.5132C37.8906 29.1637 37.9745 28.8291 37.9898 28.7697C38.0203 28.6953 37.944 28.6135 37.7838 28.5392C37.6466 28.4723 37.3033 28.2492 37.0211 28.0336C36.7313 27.8254 36.4872 27.6544 36.4644 27.6544C36.4415 27.6544 36.144 27.8254 35.8008 28.0336C35.3203 28.3236 35.1525 28.3905 35.1144 28.3161C35.0839 28.2566 34.8169 27.8328 33.9856 26.5392L34.6339 26.1674C34.9923 25.9667 35.2822 25.751 35.2822 25.7064C35.2822 25.6544 35.244 25.4759 35.1983 25.3124C35.1525 25.1488 35.0915 24.7845 35.0152 23.9815L34.4813 23.8551C34.1839 23.7882 33.8559 23.7064 33.7415 23.6841C33.5737 23.6469 33.5356 23.6023 33.5585 23.4759C33.5737 23.3793 33.6805 22.9109 33.7873 22.435C33.9627 21.6692 34.0085 21.5577 34.1381 21.5577C34.222 21.5577 34.5729 21.6246 34.9237 21.7064C35.2669 21.7882 35.5491 21.8477 35.5567 21.8402C35.5567 21.8254 35.6559 21.6544 35.7779 21.4462C35.9 21.2454 36.1288 20.9406 36.2889 20.777C36.4415 20.6135 36.5711 20.4499 36.5788 20.4053C36.5788 20.3607 36.4034 20.0558 36.1974 19.7213C35.9839 19.3792 35.8237 19.0893 35.8389 19.0744C35.8466 19.0595 36.2584 18.8068 36.7542 18.5168C37.2423 18.2268 37.6694 18.0038 37.7076 18.0186C37.7381 18.0335 37.9364 18.3086 38.5237 19.238L38.9432 19.1265C39.172 19.067 39.5838 18.9926 40.3542 18.9183L40.4838 18.3607C40.5525 18.0558 40.6364 17.7212 40.6669 17.6246C40.705 17.4908 40.7584 17.461 40.8804 17.4982ZM38.7982 21.5205C38.5694 21.6469 38.2491 21.8997 38.0737 22.0856C37.8983 22.2715 37.6847 22.5763 37.5932 22.7547C37.494 22.9332 37.3796 23.2975 37.3339 23.5652C37.2805 23.8551 37.2728 24.212 37.3033 24.4574C37.3339 24.6804 37.4788 25.0819 37.6161 25.3496C37.761 25.6321 38.0203 25.9741 38.2338 26.1674C38.4321 26.3458 38.7754 26.5689 38.9813 26.6655C39.1949 26.7548 39.5686 26.8737 39.8203 26.9183C40.1559 26.9778 40.3999 26.9778 40.7355 26.9183C40.9872 26.8663 41.3686 26.7548 41.5745 26.6655C41.7881 26.5689 42.1313 26.3235 42.3372 26.1228C42.5508 25.922 42.8177 25.5726 42.9321 25.3496C43.0465 25.1265 43.1685 24.7548 43.2067 24.5317C43.2601 24.2715 43.2524 23.9518 43.2067 23.6395C43.1609 23.3718 43.0541 22.9927 42.955 22.7845C42.8635 22.5837 42.627 22.264 42.444 22.0782C42.2609 21.8848 41.9558 21.6469 41.7652 21.5428C41.5745 21.4313 41.216 21.29 40.9643 21.2231C40.7126 21.1636 40.3999 21.1116 40.2779 21.119C40.1559 21.119 39.8584 21.1636 39.6296 21.2157C39.4008 21.2603 39.0271 21.4016 38.7982 21.5205ZM34.2373 31.6693C34.2907 31.6693 35.0152 31.8254 35.8542 32.0188C36.6932 32.2121 37.3949 32.3756 37.4177 32.3905C37.4406 32.4054 37.3949 32.6359 37.3262 32.8961C37.25 33.1637 37.1889 33.4017 37.1889 33.4388C37.1889 33.4686 37.3949 33.6321 38.1042 34.1229L38.5237 33.8626C38.7525 33.7214 38.9737 33.595 39.0118 33.5875C39.0499 33.5727 39.4771 34.1823 40.8347 36.3162L40.4457 36.5541C40.2245 36.6805 40.0033 36.8143 39.9576 36.8515C39.8813 36.8961 39.8813 37.0225 39.9499 37.4314C40.0033 37.7214 40.0643 37.9668 40.0948 37.9891C40.1254 38.0114 40.3694 38.0708 40.6516 38.1229C40.9262 38.1675 41.155 38.227 41.155 38.2493C41.155 38.2716 40.9948 38.9705 40.7965 39.8032C40.5906 40.6359 40.4076 41.3497 40.3694 41.3794C40.3389 41.4166 40.0872 41.3869 39.7974 41.3125C39.5152 41.2382 39.2635 41.2084 39.2406 41.2382C39.2177 41.2679 39.0728 41.4761 38.6381 42.0783L38.905 42.5244C39.0499 42.7698 39.1567 42.9928 39.1415 43.03C39.1262 43.0597 38.5694 43.4166 37.9059 43.8181C37.2423 44.227 36.6245 44.5988 36.5406 44.6583C36.3957 44.7549 36.3652 44.7252 35.7627 43.8255L35.2745 43.8924C35.0076 43.9222 34.7559 43.9594 34.7101 43.9742C34.6644 43.9817 34.5881 44.2047 34.5271 44.4649C34.4661 44.7252 34.3974 44.9631 34.3746 44.9928C34.3517 45.03 33.7263 44.9185 32.9941 44.7549C32.2619 44.5839 31.5373 44.4203 31.1254 44.3088L31.3695 43.2307L31.0949 43.0523C30.9424 42.9556 30.7441 42.8069 30.4771 42.5616L30.0195 42.8441C29.7678 42.9928 29.539 43.1192 29.5085 43.1192C29.4704 43.1266 29.0737 42.5318 28.6085 41.8106C28.1432 41.0895 27.7619 40.4649 27.7543 40.4352C27.739 40.398 27.9373 40.2419 28.6619 39.8106L28.6085 39.4017C28.578 39.1787 28.5246 38.9259 28.4941 38.8441C28.456 38.7326 28.3187 38.6731 27.9297 38.6062C27.5788 38.5392 27.4263 38.4798 27.4263 38.398C27.4263 38.3385 27.5865 37.6247 27.7771 36.8218C27.9678 36.0113 28.1432 35.3348 28.1585 35.3125C28.1814 35.2902 28.3949 35.3199 28.6314 35.3794C28.8678 35.4314 29.0966 35.4983 29.1424 35.5132C29.1882 35.5281 29.3712 35.3348 29.5543 35.0745C29.8288 34.6879 29.867 34.5838 29.8059 34.4574C29.7602 34.3756 29.6382 34.1675 29.3331 33.6768L29.661 33.476C29.8365 33.3719 30.4771 32.9779 31.0873 32.6136C31.9263 32.1154 32.2085 31.9741 32.2542 32.0559C32.2847 32.108 32.4144 32.3236 32.7576 32.8961L33.1618 32.8292C33.383 32.7994 33.6424 32.7548 33.7415 32.7399C33.8788 32.7176 33.9322 32.6284 34.0313 32.1898C34.1 31.8998 34.1915 31.6693 34.2373 31.6693ZM32.8186 36.45C32.6661 36.5615 32.4525 36.7623 32.3458 36.8961C32.2466 37.0225 32.0864 37.3125 32.0025 37.5281C31.9186 37.7363 31.85 38.0931 31.85 38.3088C31.85 38.5169 31.8958 38.8664 31.9568 39.0671C32.0178 39.2753 32.2085 39.6173 32.3763 39.8329C32.6051 40.1155 32.811 40.279 33.1695 40.4426C33.4288 40.5616 33.7949 40.6805 33.9856 40.7103C34.1839 40.74 34.5042 40.7177 34.7483 40.6657C34.9771 40.6136 35.2593 40.5244 35.3813 40.4723C35.4957 40.4129 35.7093 40.2567 35.8695 40.1303C36.022 39.9965 36.2279 39.7586 36.3271 39.6099C36.4186 39.4538 36.5559 39.134 36.6169 38.9036C36.7161 38.5467 36.7237 38.3831 36.655 37.9891C36.6093 37.7214 36.4872 37.372 36.3881 37.2084C36.2889 37.0448 36.0754 36.7846 35.9152 36.6359C35.755 36.4872 35.4576 36.2864 35.244 36.1972C35.0229 36.1006 34.6568 36.0188 34.3669 36.0039C34.0237 35.989 33.7491 36.0188 33.4822 36.108C33.2763 36.1824 32.9712 36.3311 32.8186 36.45Z" fill="white"/>
</svg>
