<svg width="56" height="56" viewBox="0 0 56 56" fill="none" xmlns="http://www.w3.org/2000/svg">
<rect width="56" height="56" rx="15" fill="#212020"/>
<path fill-rule="evenodd" clip-rule="evenodd" d="M27.9062 12.0008C28.8625 11.9945 29.3562 12.0258 30.0187 12.1195C30.4875 12.1883 31.1187 12.3008 31.425 12.3696C31.725 12.4321 32.2062 12.5571 32.5 12.6446C32.7938 12.7259 33.2875 12.8884 33.5938 13.0009C33.9 13.1135 34.6063 13.4323 35.1562 13.7073C35.7062 13.9886 36.4375 14.4012 36.7812 14.6325C37.125 14.8575 37.7 15.2826 38.0625 15.5764C38.425 15.8639 39.0562 16.4515 39.4688 16.8766C39.8813 17.3017 40.4625 17.9768 40.7563 18.3706C41.05 18.7644 41.425 19.302 41.5875 19.5583C41.75 19.8146 42.0875 20.4335 42.3375 20.9335C42.5875 21.4336 42.9062 22.1775 43.0562 22.5901C43.2 23.0027 43.4 23.6653 43.5 24.0591C43.6 24.4529 43.7125 24.9467 43.7437 25.153C43.7812 25.3593 43.8563 25.8344 43.9062 26.2157C43.9625 26.6095 44 27.3534 44 27.966C44 28.5599 43.9562 29.36 43.9062 29.7788C43.85 30.1914 43.75 30.8102 43.6812 31.154C43.6125 31.4979 43.4688 32.073 43.3687 32.4355C43.2625 32.7981 43.05 33.4169 42.9 33.8108C42.7437 34.2046 42.425 34.8984 42.1938 35.3423C41.9625 35.7861 41.5938 36.4237 41.3813 36.7488C41.1625 37.0738 40.8 37.5801 40.5688 37.8739C40.3438 38.1677 39.8312 38.7366 39.4375 39.1492C39.0438 39.5555 38.425 40.1306 38.0625 40.4181C37.7 40.7119 37.125 41.137 36.7812 41.362C36.4375 41.5933 35.7062 42.0059 35.1562 42.2872C34.6063 42.5623 33.8188 42.9123 33.4062 43.0561C32.9937 43.1999 32.3312 43.3999 31.9375 43.4999C31.5438 43.5999 31.05 43.7062 30.8438 43.7437C30.6375 43.7812 30.175 43.85 29.8125 43.9062C29.4062 43.9625 28.7125 44 28 44C27.15 44 26.6062 43.9625 25.9375 43.8687C25.4375 43.7937 24.6125 43.6312 24.0938 43.4999C23.5813 43.3686 22.875 43.1624 22.5312 43.0373C22.1875 42.9061 21.4875 42.5998 20.9688 42.3435C20.4563 42.0934 19.8187 41.7496 19.5625 41.5871C19.3063 41.4246 18.7688 41.0495 18.375 40.7557C17.95 40.4431 17.2688 39.8368 16.7125 39.2867C16.1625 38.7303 15.5563 38.049 15.2438 37.6239C14.95 37.2301 14.575 36.6925 14.4125 36.4362C14.25 36.1799 13.8937 35.5173 13.625 34.9672C13.35 34.4171 13.0063 33.5857 12.85 33.1231C12.6938 32.6606 12.4937 31.9729 12.4125 31.5916C12.325 31.2103 12.2 30.5039 12.1312 30.0101C12.0375 29.3912 12 28.7974 12 28.0473C12 27.4347 12.0437 26.6408 12.0938 26.2157C12.15 25.8031 12.2625 25.1155 12.35 24.6842C12.4375 24.2529 12.65 23.4777 12.8188 22.9651C13.0063 22.4025 13.3375 21.6024 13.65 20.9648C13.9375 20.3835 14.3937 19.5771 14.6562 19.1832C14.925 18.7894 15.375 18.1831 15.6562 17.8393C15.9437 17.4955 16.4812 16.9141 16.85 16.5515C17.225 16.189 17.7438 15.7264 18 15.5139C18.2562 15.3076 18.7937 14.92 19.1875 14.6575C19.5813 14.3949 20.2563 13.9949 20.6875 13.7761C21.1187 13.5573 21.7563 13.2635 22.1125 13.126C22.4625 12.9822 23.0688 12.7759 23.4563 12.6571C23.8375 12.5446 24.4625 12.3883 24.8438 12.3133C25.225 12.2383 25.7875 12.1445 26.0938 12.0945C26.4 12.0508 27.2188 12.007 27.9062 12.0008ZM25.25 15.3451C24.8562 15.4326 24.225 15.6014 23.8438 15.7327C23.4625 15.8577 22.775 16.1452 22.3125 16.3765C21.85 16.6078 21.1875 16.9829 20.8438 17.2142C20.5 17.4454 19.9938 17.8268 19.7188 18.0581C19.4437 18.2893 18.9875 18.7144 18.7063 19.002C18.425 19.2895 18.05 19.7083 17.8688 19.9334C17.6937 20.1584 17.375 20.596 17.175 20.9023C16.9688 21.2086 16.6125 21.8462 16.3812 22.3088C16.15 22.7714 15.85 23.5027 15.7062 23.9341C15.5687 24.3654 15.3937 25.0092 15.3187 25.3718C15.25 25.7344 15.1625 26.2657 15.125 26.5595C15.0938 26.8533 15.0625 27.4847 15.0625 27.966C15.0625 28.4473 15.0938 29.0974 15.125 29.4037C15.1625 29.7101 15.25 30.2601 15.3187 30.6227C15.3937 30.9853 15.5687 31.6291 15.7062 32.0605C15.85 32.4918 16.15 33.2232 16.3812 33.6857C16.6125 34.1483 16.95 34.7547 17.125 35.0297C17.3063 35.3048 17.6438 35.7673 17.875 36.0611C18.1062 36.3549 18.6188 36.8988 19.0062 37.2801C19.4 37.6614 19.9313 38.124 20.1875 38.3178C20.4438 38.5116 20.8938 38.8179 21.1875 39.0054C21.4812 39.1867 22.0562 39.4992 22.4688 39.693C22.8813 39.893 23.525 40.1618 23.9062 40.2806C24.2875 40.4056 24.9 40.5744 25.2812 40.6557C25.6625 40.7369 26.2438 40.8307 26.5813 40.8682C26.9125 40.9057 27.5625 40.937 28.0187 40.937C28.4688 40.937 29.1 40.9057 29.4062 40.8745C29.7125 40.837 30.2625 40.7494 30.625 40.6807C30.9875 40.6057 31.6313 40.4306 32.0625 40.2931C32.4937 40.1493 33.2312 39.843 33.7062 39.6117C34.175 39.3805 34.8375 38.9991 35.175 38.7741C35.5062 38.5428 35.975 38.1928 36.2188 37.999C36.4625 37.7989 36.925 37.3551 37.2563 37.0176C37.5813 36.68 37.9688 36.2612 38.1063 36.0924C38.2438 35.9174 38.5437 35.5048 38.775 35.1672C39 34.8359 39.3812 34.1733 39.6125 33.7045C39.8438 33.2294 40.1375 32.5355 40.2625 32.1542C40.3938 31.7729 40.5625 31.1415 40.65 30.7477C40.7375 30.3539 40.8312 29.7538 40.8687 29.4163C40.9062 29.0849 40.9375 28.4411 40.9375 27.9973C40.9375 27.5472 40.9062 26.9096 40.8687 26.572C40.8312 26.2407 40.7375 25.6406 40.65 25.2468C40.5625 24.853 40.3938 24.2216 40.2625 23.8403C40.1375 23.459 39.8438 22.7651 39.6125 22.29C39.3812 21.8212 39 21.1586 38.775 20.8273C38.5437 20.4897 38.1938 20.0146 38 19.7771C37.8 19.5396 37.3438 19.0582 36.9937 18.7144C36.6375 18.3644 36.1625 17.9393 35.9375 17.7643C35.7125 17.5892 35.3062 17.3017 35.0312 17.1204C34.7563 16.9454 34.15 16.6078 33.6875 16.3765C33.225 16.1452 32.4937 15.8452 32.0625 15.7014C31.6313 15.5639 30.9875 15.3888 30.625 15.3138C30.2625 15.2451 29.7125 15.1576 29.4062 15.1201C29.1 15.0888 28.425 15.0638 27.9062 15.0638C27.3938 15.07 26.7437 15.1013 26.4688 15.1326C26.1938 15.1638 25.6438 15.2576 25.25 15.3451ZM27.0312 16.9641L27.0625 18.0893C27.0875 19.0707 27.1125 19.2395 27.2188 19.4208C27.2875 19.5333 27.4563 19.6833 27.5938 19.7458C27.7312 19.8146 27.9125 19.8709 28 19.8709C28.0875 19.8709 28.2687 19.8146 28.4062 19.7458C28.5562 19.6771 28.7125 19.5333 28.7938 19.3895C28.925 19.1707 28.9312 19.0707 28.9375 16.9641L29.3625 17.0079C29.5938 17.0329 30.0625 17.1141 30.4062 17.1892C30.75 17.2642 31.3125 17.4204 31.6562 17.5392C32 17.658 32.6313 17.9393 33.0625 18.1581C33.4937 18.3831 34.1 18.7457 34.4062 18.9645C34.7125 19.1832 35.2062 19.5833 35.4937 19.8521C35.7875 20.1209 36.2375 20.596 36.4937 20.9023C36.75 21.2086 37.1063 21.6899 37.2875 21.965C37.4688 22.24 37.7687 22.7901 37.9625 23.1839C38.15 23.5778 38.4062 24.1966 38.525 24.5592C38.6375 24.9217 38.7812 25.4406 38.8375 25.7156C38.8937 25.9907 38.9625 26.4032 39.0312 27.0596H37.9375C36.925 27.0658 36.825 27.0721 36.6063 27.2034C36.4625 27.2846 36.3188 27.4409 36.25 27.5909C36.1812 27.7285 36.125 27.9097 36.125 27.9973C36.125 28.0848 36.1812 28.2661 36.25 28.4036C36.3188 28.5536 36.4625 28.7099 36.6063 28.7911C36.825 28.9224 36.925 28.9287 39.0312 28.9349L38.9875 29.36C38.9625 29.5913 38.8937 30.0039 38.8375 30.2789C38.7812 30.5539 38.6375 31.0728 38.525 31.4353C38.4062 31.7979 38.1625 32.398 37.9813 32.7793C37.8 33.1606 37.5125 33.6795 37.35 33.9358C37.1812 34.1921 36.8938 34.5984 36.7 34.8422C36.5063 35.086 36.15 35.486 35.9125 35.7361C35.6688 35.9924 35.2313 36.3862 34.9375 36.6237C34.6437 36.855 34.1938 37.1801 33.9375 37.3489C33.6812 37.5114 33.1313 37.8114 32.7188 38.0052C32.3062 38.199 31.7 38.449 31.375 38.5491C31.05 38.6553 30.5562 38.7866 30.2812 38.8366C30.0063 38.8929 29.5938 38.9616 28.9375 39.0304V37.9365C28.9312 36.9238 28.925 36.8238 28.7938 36.605C28.7125 36.4612 28.5562 36.3174 28.4062 36.2487C28.2687 36.1799 28.0875 36.1236 28 36.1236C27.9125 36.1236 27.7312 36.1799 27.5938 36.2487C27.4438 36.3174 27.2875 36.4612 27.2063 36.605C27.075 36.8238 27.0688 36.9238 27.0625 39.0304L26.6375 38.9866C26.4062 38.9616 25.9937 38.8929 25.7188 38.8366C25.4438 38.7804 24.925 38.6366 24.5625 38.5241C24.2 38.4053 23.5813 38.149 23.1875 37.9615C22.7937 37.7677 22.2437 37.4676 21.9688 37.2863C21.6938 37.1051 21.2125 36.7488 20.9062 36.4862C20.6 36.2299 20.1875 35.8486 20 35.6486C19.8063 35.4485 19.4938 35.086 19.3 34.8422C19.1125 34.5984 18.825 34.2108 18.6687 33.967C18.5187 33.7232 18.2438 33.2419 18.0687 32.8918C17.8937 32.5355 17.6375 31.9167 17.5062 31.5166C17.375 31.1103 17.2188 30.5539 17.1625 30.2789C17.1062 30.0039 17.0375 29.5913 16.9688 28.9349H18.0625C19.075 28.9287 19.175 28.9224 19.3938 28.7911C19.5375 28.7099 19.6813 28.5536 19.75 28.4036C19.8187 28.2661 19.875 28.0848 19.875 27.9973C19.875 27.9097 19.8187 27.7285 19.75 27.5909C19.6813 27.4409 19.5375 27.2846 19.3938 27.2034C19.175 27.0721 19.075 27.0658 16.9688 27.0596L17.0125 26.6345C17.0375 26.4032 17.1188 25.9344 17.1937 25.5906C17.2625 25.2468 17.4313 24.6717 17.5625 24.3091C17.6875 23.9466 17.9313 23.384 18.0938 23.0589C18.2562 22.7339 18.5375 22.24 18.7125 21.965C18.8938 21.6899 19.25 21.2086 19.5125 20.9023C19.7687 20.596 20.15 20.1834 20.35 19.9959C20.55 19.8021 20.9187 19.4896 21.1562 19.2958C21.3938 19.1082 21.7937 18.8207 22.0312 18.6644C22.2688 18.5144 22.7563 18.2393 23.1125 18.0643C23.4625 17.8893 24.0813 17.633 24.4812 17.5017C24.8875 17.3642 25.525 17.1954 25.9062 17.1266C26.2875 17.0579 26.6938 16.9891 26.8125 16.9829L27.0312 16.9641ZM30.1562 24.3904C28.9562 25.6531 27.95 26.6783 27.925 26.672C27.9062 26.6595 27.1938 26.0469 26.35 25.3093C25.5063 24.5717 24.7375 23.9278 24.6375 23.8903C24.5437 23.8465 24.3687 23.809 24.25 23.809C24.1187 23.809 23.9438 23.859 23.8188 23.9466C23.7 24.0278 23.55 24.1591 23.4875 24.2466C23.4187 24.3341 23.3625 24.5154 23.3562 24.6529C23.35 24.7905 23.3875 24.9967 23.4375 25.1155C23.5063 25.2655 24.1187 25.8469 25.4688 27.0283C26.5375 27.9598 27.5 28.7724 27.6125 28.8286C27.7188 28.8849 27.9062 28.9349 28.0187 28.9287C28.125 28.9287 28.3062 28.8787 28.4125 28.8224C28.525 28.7599 29.775 27.5222 31.1938 26.0594C32.6938 24.5154 33.8063 23.3152 33.8563 23.1964C33.9 23.0839 33.9375 22.9339 33.9375 22.8526C33.9375 22.7776 33.8813 22.5963 33.8125 22.4463C33.725 22.2588 33.6125 22.1463 33.4375 22.0587C33.3 21.99 33.0938 21.9337 32.9875 21.9337C32.875 21.9337 32.6812 21.9712 32.5625 22.015C32.4 22.0712 31.7563 22.7089 30.1562 24.3904Z" fill="white"/>
</svg>
