<svg width="56" height="56" viewBox="0 0 56 56" fill="none" xmlns="http://www.w3.org/2000/svg">
<rect width="56" height="56" rx="15" fill="#212020"/>
<path fill-rule="evenodd" clip-rule="evenodd" d="M27.3991 16C41.4745 16 41.7135 16 42.1385 16.1239C42.3775 16.1957 42.7161 16.3522 42.8953 16.4696C43.0746 16.587 43.3269 16.8478 43.4597 17.0435C43.5991 17.2391 43.7452 17.5587 43.785 17.7478C43.8315 17.9565 43.8647 18.6674 43.8647 21.087H11V19.5348C11 18.3804 11.0199 17.9043 11.093 17.663C11.1461 17.4804 11.2921 17.187 11.4183 17.0109C11.5444 16.8283 11.7901 16.587 11.9693 16.4696C12.1486 16.3522 12.4739 16.1957 12.693 16.1304C13.0781 16.013 13.5893 16.0065 27.3991 16V16ZM11 23.3043H20.4411C25.6331 23.3043 29.8557 23.3304 29.8159 23.3565C29.7827 23.3826 29.5503 23.5848 29.2913 23.8065C29.0324 24.0217 28.6141 24.4457 28.3552 24.7457C28.0896 25.0457 27.7112 25.5413 27.5054 25.8478C27.2996 26.1543 26.9941 26.6696 26.8348 26.9891C26.6755 27.3087 26.4232 27.9283 26.2837 28.3587C26.1377 28.7891 25.965 29.4348 25.8987 29.7935C25.7991 30.2957 25.7725 30.7391 25.7791 31.7174C25.7791 32.7739 25.8057 33.1065 25.9318 33.6739C26.0115 34.0522 26.1709 34.6261 26.2771 34.9457C26.39 35.2652 26.6157 35.8261 26.795 36.1848C26.9676 36.5435 27.2464 37.0391 27.4124 37.2935C27.5784 37.5478 27.8108 37.8739 28.1295 38.3043L12.693 38.2717L12.3279 38.1022C12.1287 38.0109 11.8299 37.8022 11.6706 37.6457C11.5112 37.4891 11.2988 37.1957 11.0332 36.6413L11 23.3043ZM13.2574 32.7609H20.627V31.0652H13.2574V32.7609ZM13.2574 36.087H23.4819L23.4487 34.4239L13.2574 34.3913V36.087ZM36.4286 23.3109C36.8867 23.3043 37.5374 23.35 37.876 23.4022C38.2146 23.4543 38.7391 23.5783 39.0379 23.6696C39.3367 23.7609 39.808 23.9435 40.0803 24.0609C40.3591 24.1848 40.877 24.4848 41.2421 24.7261C41.6073 24.9674 42.1517 25.3978 42.4439 25.6848C42.736 25.9717 43.1343 26.4087 43.3203 26.663C43.5128 26.9109 43.8315 27.4261 44.024 27.8043C44.2232 28.1826 44.4489 28.6783 44.5286 28.913C44.6083 29.1478 44.7477 29.6565 44.834 30.0543C44.9602 30.6087 45 30.9609 45 31.6196C45 32.2261 44.9602 32.65 44.8606 33.1196C44.7809 33.4783 44.6348 34.0261 44.5286 34.3391C44.4224 34.6587 44.2365 35.0957 44.1236 35.3174C44.0107 35.5457 43.7518 35.9761 43.546 36.2826C43.3402 36.5826 42.9285 37.0783 42.6364 37.3848C42.3443 37.6848 41.853 38.1152 41.5409 38.3435C41.2355 38.5717 40.6778 38.9043 40.3126 39.0804C39.9475 39.263 39.4097 39.4848 39.1176 39.5761C38.8254 39.6674 38.2744 39.7978 37.8893 39.8696C37.4843 39.9478 36.9067 40 36.495 40C36.0635 40 35.539 39.9478 35.1008 39.8696C34.7223 39.7913 34.1381 39.6478 33.8061 39.5435C33.4808 39.4326 32.9895 39.237 32.7106 39.1C32.4384 38.9696 31.9936 38.7087 31.7213 38.5326C31.4491 38.35 30.9777 37.9717 30.6657 37.6848C30.3603 37.3978 29.9154 36.9152 29.6831 36.6087C29.4507 36.3022 29.0922 35.7283 28.8996 35.337C28.7005 34.9391 28.4548 34.3522 28.3618 34.0326C28.2689 33.7065 28.1427 33.1522 28.0896 32.7935C28.0166 32.337 27.9967 31.8935 28.0232 31.3261C28.0432 30.8761 28.1029 30.2891 28.1627 30.0217C28.2158 29.7543 28.3419 29.2978 28.4349 29.0109C28.5278 28.7239 28.7403 28.2217 28.9063 27.9022C29.0723 27.5761 29.3644 27.0935 29.5503 26.8261C29.7362 26.5587 30.1611 26.0761 30.4864 25.75C30.8516 25.3913 31.3562 24.9804 31.7811 24.7065C32.1662 24.4522 32.7372 24.1457 33.0426 24.0152C33.3546 23.8783 33.8194 23.7087 34.0717 23.637C34.3306 23.5587 34.7754 23.4543 35.0676 23.4087C35.3597 23.3565 35.9772 23.3109 36.4286 23.3109ZM35.9307 32.8261L33.3413 30.2826C32.133 31.4696 31.7877 31.8413 31.7877 31.8804C31.7811 31.913 32.7106 32.8522 33.8393 33.9674L35.9041 35.9891L41.8065 30.1848C40.5981 28.9978 40.233 28.6522 40.213 28.6522C40.1998 28.6522 39.2238 29.5913 38.0553 30.7391L35.9307 32.8261Z" fill="white"/>
</svg>
