<svg width="56" height="56" viewBox="0 0 56 56" fill="none" xmlns="http://www.w3.org/2000/svg">
<rect width="56" height="56" rx="15" fill="#212020"/>
<path d="M24.9312 13.6391C26.3557 12.8696 27.6062 12.1877 27.7158 12.1251C27.8254 12.0563 27.9285 12 27.9607 12C27.9865 11.9938 31.1321 13.6704 34.9545 15.7224C38.7704 17.7744 41.9224 19.4698 41.9482 19.4948C41.974 19.5136 40.7428 20.2205 39.2087 21.0589C37.6746 21.9034 36.3854 22.5916 36.3532 22.5916C36.3145 22.5979 33.1432 20.9087 29.3079 18.8442C25.4727 16.7797 22.3335 15.078 22.3335 15.0593C22.3335 15.0405 23.5002 14.4024 24.9312 13.6391Z" fill="white"/>
<path d="M13.0193 36.1048L13.0064 28.6162L13 21.1214L13.3932 21.3404C13.6124 21.4592 16.7644 23.1922 27.0068 28.8164L27.0197 36.3863C27.039 43.5746 27.0325 43.9625 26.923 43.9374C26.865 43.9249 23.7065 42.1544 13.0193 36.1048Z" fill="white"/>
<path d="M29.0179 28.8102C29.0436 28.7852 32.1828 27.0647 35.9922 24.9814C39.8082 22.8982 42.9473 21.1902 42.9731 21.1902C42.9988 21.1902 43.0117 24.5435 42.9859 36.0985L28.9985 44L28.9856 36.4301C28.9792 32.2635 28.9921 28.8352 29.0179 28.8102Z" fill="white"/>
<path d="M14.0636 19.4886C14.0893 19.4698 15.4945 18.7003 17.1898 17.7932L20.2644 16.1353L20.4771 16.2542C20.5932 16.3167 23.7323 17.9996 27.4515 20.0016C31.1772 22.0035 34.2454 23.6614 34.2712 23.6802C34.3034 23.7052 32.9047 24.506 27.9994 27.1961L21.0122 23.3674C17.164 21.2591 14.0378 19.5136 14.0636 19.4886Z" fill="white"/>
</svg>
