<svg width="391" height="94" viewBox="0 0 391 94" fill="none" xmlns="http://www.w3.org/2000/svg">
<path d="M21.6669 85.0321L16.8776 77.6285L19.7556 75.8929L25.7092 85.0321H21.6669ZM11.6709 85.0321V69.6537H15.2079V85.0321H11.6709ZM14.1754 78.8368V75.871H19.5359V78.8368H14.1754ZM20.0851 77.7384L16.8117 77.3429L21.7987 69.6537H25.5554L20.0851 77.7384Z" fill="black"/>
<path d="M30.2325 85.0321V69.6537H36.8892C38.2659 69.6537 39.4522 69.8807 40.4482 70.3347C41.4441 70.7741 42.213 71.4112 42.7549 72.246C43.2968 73.0809 43.5678 74.0768 43.5678 75.2339C43.5678 76.3763 43.2968 77.3649 42.7549 78.1997C42.213 79.0345 41.4441 79.679 40.4482 80.133C39.4522 80.5724 38.2659 80.7921 36.8892 80.7921H32.2097L33.7915 79.1883V85.0321H30.2325ZM33.7915 79.5838L32.2097 77.8921H36.6914C37.7899 77.8921 38.6101 77.6578 39.152 77.1891C39.6939 76.7204 39.9649 76.0687 39.9649 75.2339C39.9649 74.3844 39.6939 73.7253 39.152 73.2566C38.6101 72.788 37.7899 72.5536 36.6914 72.5536H32.2097L33.7915 70.862V79.5838Z" fill="black"/>
<path d="M48.7716 85.0321V69.6537H62.788V85.0321H59.2509V71.7408L60.0638 72.5536H51.4958L52.3086 71.7408V85.0321H48.7716Z" fill="black"/>
<path d="M72.3561 78.6171V75.8929H79.9574V78.6171H72.3561ZM74.3772 69.39C75.5343 69.39 76.5961 69.5878 77.5628 69.9832C78.5294 70.364 79.3716 70.9132 80.0892 71.6309C80.8069 72.3486 81.3634 73.1907 81.7589 74.1574C82.1543 75.124 82.3521 76.1859 82.3521 77.3429C82.3521 78.4999 82.1543 79.5618 81.7589 80.5284C81.3634 81.4951 80.8069 82.3372 80.0892 83.0549C79.3716 83.7726 78.5294 84.3291 77.5628 84.7246C76.5961 85.1054 75.5343 85.2958 74.3772 85.2958C73.0151 85.2958 71.7849 85.0614 70.6864 84.5927C69.6026 84.1241 68.6945 83.443 67.9622 82.5496L70.2251 80.4406C70.767 81.0557 71.3674 81.5171 72.0265 81.8246C72.6856 82.1175 73.4106 82.264 74.2015 82.264C74.8605 82.264 75.4684 82.1468 76.0249 81.9125C76.5961 81.6635 77.0794 81.3267 77.4749 80.9019C77.885 80.4625 78.1926 79.9426 78.3976 79.3421C78.6173 78.7416 78.7271 78.0752 78.7271 77.3429C78.7271 76.6106 78.6173 75.9442 78.3976 75.3437C78.1926 74.7432 77.885 74.2306 77.4749 73.8059C77.0794 73.3665 76.5961 73.0296 76.0249 72.7953C75.4684 72.5463 74.8605 72.4218 74.2015 72.4218C73.4106 72.4218 72.6856 72.5756 72.0265 72.8832C71.3674 73.1761 70.767 73.6301 70.2251 74.2452L67.9622 72.1362C68.6945 71.2428 69.6026 70.5617 70.6864 70.0931C71.7849 69.6244 73.0151 69.39 74.3772 69.39Z" fill="black"/>
<path d="M24.0181 31.5886L32.597 37.8508H37.9404L47.039 31.5886" stroke="#DC2224" stroke-width="2" stroke-miterlimit="10" stroke-linecap="round" stroke-linejoin="round"/>
<path d="M24.0181 39.4153L32.597 46.1039H36.8737" stroke="#DC2224" stroke-width="2" stroke-miterlimit="10" stroke-linecap="round" stroke-linejoin="round"/>
<path d="M47.0391 52.1843L57.0335 46.5305V41.1752" stroke="#DC2224" stroke-width="2" stroke-miterlimit="10" stroke-linecap="round" stroke-linejoin="round"/>
<path d="M63.9973 51.5166V34.3741L55.1003 28.6139" stroke="#DC2224" stroke-width="2" stroke-miterlimit="10" stroke-linecap="round" stroke-linejoin="round"/>
<path d="M47.039 20.5057L34.5754 28.2905" stroke="#DC2224" stroke-width="2" stroke-miterlimit="10" stroke-linecap="round" stroke-linejoin="round"/>
<path d="M47.0391 8.62622V20.3312" stroke="#DC2224" stroke-width="2" stroke-miterlimit="10" stroke-linecap="round" stroke-linejoin="round"/>
<path d="M47.0391 39.4153V61.7917L70.0606 48.5003V21.9175L62.6832 17.6585V23.7032" stroke="#DC2224" stroke-width="2" stroke-miterlimit="10" stroke-linecap="round" stroke-linejoin="round"/>
<path d="M30.8917 54.2004L24.0181 48.5004V21.9176L47.039 8.62622L54.365 12.8557" stroke="#DC2224" stroke-width="2" stroke-miterlimit="10" stroke-linecap="round" stroke-linejoin="round"/>
<path d="M49.0181 39.4154C49.0181 40.5081 48.1324 41.3939 47.0397 41.3939C45.947 41.3939 45.0613 40.5081 45.0613 39.4154C45.0613 38.3227 45.947 37.437 47.0397 37.437C48.1318 37.437 49.0181 38.3227 49.0181 39.4154Z" fill="#DC2224"/>
<path d="M36.5543 28.2903C36.5543 29.383 35.6685 30.2687 34.5758 30.2687C33.4832 30.2687 32.5974 29.383 32.5974 28.2903C32.5974 27.1976 33.4832 26.3119 34.5758 26.3119C35.6685 26.3119 36.5543 27.1976 36.5543 28.2903Z" fill="#DC2224"/>
<path d="M49.0181 20.5058C49.0181 21.5985 48.1324 22.4842 47.0397 22.4842C45.947 22.4842 45.0613 21.5985 45.0613 20.5058C45.0613 19.4131 45.947 18.5274 47.0397 18.5274C48.1318 18.5274 49.0181 19.4131 49.0181 20.5058Z" fill="#DC2224"/>
<path d="M57.5516 28.6138C57.5516 29.7065 56.6658 30.5923 55.5732 30.5923C54.4805 30.5923 53.5947 29.7065 53.5947 28.6138C53.5947 27.5211 54.4805 26.6354 55.5732 26.6354C56.6658 26.6354 57.5516 27.5211 57.5516 28.6138Z" fill="#DC2224"/>
<path d="M49.0181 31.4129C49.0181 32.5056 48.1324 33.3913 47.0397 33.3913C45.947 33.3913 45.0613 32.5056 45.0613 31.4129C45.0613 30.3202 45.947 29.4345 47.0397 29.4345C48.1318 29.4345 49.0181 30.3202 49.0181 31.4129Z" fill="#DC2224"/>
<path d="M57.0789 13.4344C57.0789 14.5271 56.1932 15.4128 55.1005 15.4128C54.0078 15.4128 53.1221 14.5271 53.1221 13.4344C53.1221 12.3417 54.0078 11.456 55.1005 11.456C56.1932 11.456 57.0789 12.3417 57.0789 13.4344Z" fill="#DC2224"/>
<path d="M33.1243 54.7343C33.1243 55.8269 32.2386 56.7127 31.1459 56.7127C30.0532 56.7127 29.1675 55.8269 29.1675 54.7343C29.1675 53.6416 30.0532 52.7558 31.1459 52.7558C32.2386 52.7558 33.1243 53.6416 33.1243 54.7343Z" fill="#DC2224"/>
<path d="M38.8524 46.1041C38.8524 47.1967 37.9666 48.0825 36.8739 48.0825C35.7813 48.0825 34.8955 47.1967 34.8955 46.1041C34.8955 45.0114 35.7813 44.1256 36.8739 44.1256C37.9666 44.1256 38.8524 45.0114 38.8524 46.1041Z" fill="#DC2224"/>
<path d="M59.0118 40.7741C59.0118 41.8668 58.126 42.7525 57.0334 42.7525C55.9407 42.7525 55.0549 41.8668 55.0549 40.7741C55.0549 39.6814 55.9407 38.7957 57.0334 38.7957C58.126 38.7957 59.0118 39.6814 59.0118 40.7741Z" fill="#DC2224"/>
<rect x="2" y="2" width="90" height="90" stroke="black" stroke-width="4"/>
<mask id="path-20-inside-1_297_57" fill="white">
<path d="M0 61.4887H94V94H0V61.4887Z"/>
</mask>
<path d="M94 94V98H98V94H94ZM0 94H-4V98H0V94ZM90 61.4887V94H98V61.4887H90ZM94 90H0V98H94V90ZM4 94V61.4887H-4V94H4Z" fill="#CE2510" mask="url(#path-20-inside-1_297_57)"/>
<path d="M115.12 34V22.48H117.048V27.824L121.648 22.48H124.016L119.064 28.128L124.352 34H121.904L117.048 28.624V34H115.12Z" fill="black"/>
<path d="M130.206 34.24C129.054 34.24 128.068 33.9893 127.246 33.488C126.425 32.9813 125.793 32.2773 125.35 31.376C124.913 30.4747 124.694 29.4293 124.694 28.24C124.694 27.0507 124.913 26.0053 125.35 25.104C125.793 24.2027 126.425 23.5013 127.246 23C128.068 22.4933 129.054 22.24 130.206 22.24C131.358 22.24 132.345 22.4933 133.166 23C133.993 23.5013 134.625 24.2027 135.062 25.104C135.505 26.0053 135.726 27.0507 135.726 28.24C135.726 29.4293 135.505 30.4747 135.062 31.376C134.625 32.2773 133.993 32.9813 133.166 33.488C132.345 33.9893 131.358 34.24 130.206 34.24ZM130.206 32.424C130.98 32.4293 131.622 32.2587 132.134 31.912C132.652 31.5653 133.038 31.0773 133.294 30.448C133.556 29.8187 133.686 29.0827 133.686 28.24C133.686 27.3973 133.556 26.6667 133.294 26.048C133.038 25.424 132.652 24.9387 132.134 24.592C131.622 24.2453 130.98 24.0667 130.206 24.056C129.433 24.0507 128.79 24.2213 128.278 24.568C127.766 24.9147 127.38 25.4027 127.118 26.032C126.862 26.6613 126.734 27.3973 126.734 28.24C126.734 29.0827 126.862 29.816 127.118 30.44C127.374 31.0587 127.758 31.5413 128.27 31.888C128.788 32.2347 129.433 32.4133 130.206 32.424Z" fill="black"/>
<path d="M137.799 34V22.48H139.535L143.519 30.64L147.503 22.48H149.239V34H147.439V26.616L143.903 34H143.135L139.607 26.616V34H137.799Z" fill="black"/>
<path d="M151.966 34V22.48H161.302V34H159.374V24.288H153.894V34H151.966Z" fill="black"/>
<path d="M163.224 34V32.384C163.48 32.4 163.696 32.3813 163.872 32.328C164.048 32.2693 164.195 32.16 164.312 32C164.435 31.8347 164.542 31.6027 164.632 31.304C164.723 31 164.811 30.6187 164.896 30.16C165.019 29.504 165.12 28.8213 165.2 28.112C165.286 27.3973 165.358 26.696 165.416 26.008C165.475 25.3147 165.52 24.664 165.552 24.056C165.584 23.448 165.611 22.9227 165.632 22.48H173.344V34H171.416V24.288H167.416C167.39 24.6453 167.358 25.0773 167.32 25.584C167.288 26.0853 167.243 26.6293 167.184 27.216C167.131 27.8027 167.062 28.4107 166.976 29.04C166.896 29.6693 166.798 30.288 166.68 30.896C166.574 31.4507 166.446 31.9493 166.296 32.392C166.147 32.8293 165.947 33.192 165.696 33.48C165.451 33.7627 165.128 33.952 164.728 34.048C164.334 34.144 163.832 34.128 163.224 34Z" fill="black"/>
<path d="M176.067 34V22.48H183.507V24.288H177.995V27.128H182.547V28.936H177.995V32.192H183.507V34H176.067Z" fill="black"/>
<path d="M185.906 34V22.48H187.834V27.824L192.434 22.48H194.802L189.85 28.128L195.138 34H192.69L187.834 28.624V34H185.906Z" fill="black"/>
<path d="M200.993 34.24C199.841 34.24 198.854 33.9893 198.033 33.488C197.211 32.9813 196.579 32.2773 196.137 31.376C195.699 30.4747 195.481 29.4293 195.481 28.24C195.481 27.0507 195.699 26.0053 196.137 25.104C196.579 24.2027 197.211 23.5013 198.033 23C198.854 22.4933 199.841 22.24 200.993 22.24C202.321 22.24 203.427 22.5733 204.313 23.24C205.198 23.9013 205.819 24.7947 206.177 25.92L204.233 26.456C204.009 25.704 203.627 25.1173 203.089 24.696C202.55 24.2693 201.851 24.056 200.993 24.056C200.219 24.056 199.574 24.2293 199.057 24.576C198.545 24.9227 198.158 25.4107 197.897 26.04C197.641 26.664 197.51 27.3973 197.505 28.24C197.505 29.0827 197.633 29.8187 197.889 30.448C198.15 31.072 198.539 31.5573 199.057 31.904C199.574 32.2507 200.219 32.424 200.993 32.424C201.851 32.424 202.55 32.2107 203.089 31.784C203.627 31.3573 204.009 30.7707 204.233 30.024L206.177 30.56C205.819 31.6853 205.198 32.5813 204.313 33.248C203.427 33.9093 202.321 34.24 200.993 34.24Z" fill="black"/>
<path d="M208.413 34V22.48H210.341V27.328H215.797V22.48H217.717V34H215.797V29.136H210.341V34H208.413Z" fill="black"/>
<path d="M220.424 34V22.48H222.352V26.504H225.184C225.291 26.504 225.435 26.5093 225.616 26.52C225.797 26.5253 225.963 26.5413 226.112 26.568C226.773 26.6693 227.32 26.8907 227.752 27.232C228.189 27.5733 228.512 28.0053 228.72 28.528C228.933 29.0453 229.04 29.6187 229.04 30.248C229.04 30.8827 228.933 31.4613 228.72 31.984C228.512 32.5013 228.189 32.9307 227.752 33.272C227.32 33.6133 226.773 33.8347 226.112 33.936C225.963 33.9573 225.797 33.9733 225.616 33.984C225.44 33.9947 225.296 34 225.184 34H220.424ZM222.352 32.192H225.104C225.216 32.192 225.336 32.1867 225.464 32.176C225.597 32.1653 225.723 32.1467 225.84 32.12C226.155 32.04 226.403 31.8987 226.584 31.696C226.771 31.4933 226.901 31.264 226.976 31.008C227.056 30.7467 227.096 30.4933 227.096 30.248C227.096 30.0027 227.056 29.752 226.976 29.496C226.901 29.24 226.771 29.0107 226.584 28.808C226.403 28.6053 226.155 28.464 225.84 28.384C225.723 28.352 225.597 28.3307 225.464 28.32C225.336 28.3093 225.216 28.304 225.104 28.304H222.352V32.192ZM230.192 34V22.48H232.12V34H230.192Z" fill="black"/>
<path d="M234.826 34V22.48H236.778V30.6L242.122 22.48H244.074V34H242.122V25.88L236.778 34H234.826ZM239.442 21.504C238.994 21.504 238.586 21.3947 238.218 21.176C237.856 20.9573 237.565 20.6667 237.346 20.304C237.128 19.936 237.018 19.528 237.018 19.08H238.522C238.522 19.336 238.61 19.5547 238.786 19.736C238.968 19.912 239.186 20 239.442 20C239.698 20 239.914 19.912 240.09 19.736C240.272 19.5547 240.362 19.336 240.362 19.08H241.866C241.866 19.528 241.757 19.936 241.538 20.304C241.32 20.6667 241.026 20.9573 240.658 21.176C240.29 21.3947 239.885 21.504 239.442 21.504Z" fill="black"/>
<path d="M250.474 34V22.48H255.234C255.346 22.48 255.49 22.4853 255.666 22.496C255.842 22.5013 256.005 22.5173 256.154 22.544C256.821 22.6453 257.37 22.8667 257.802 23.208C258.239 23.5493 258.562 23.9813 258.77 24.504C258.983 25.0213 259.09 25.5973 259.09 26.232C259.09 26.8613 258.983 27.4373 258.77 27.96C258.557 28.4773 258.231 28.9067 257.794 29.248C257.362 29.5893 256.815 29.8107 256.154 29.912C256.005 29.9333 255.839 29.9493 255.658 29.96C255.482 29.9707 255.341 29.976 255.234 29.976H252.402V34H250.474ZM252.402 28.176H255.154C255.261 28.176 255.381 28.1707 255.514 28.16C255.647 28.1493 255.77 28.128 255.882 28.096C256.202 28.016 256.453 27.8747 256.634 27.672C256.821 27.4693 256.951 27.24 257.026 26.984C257.106 26.728 257.146 26.4773 257.146 26.232C257.146 25.9867 257.106 25.736 257.026 25.48C256.951 25.2187 256.821 24.9867 256.634 24.784C256.453 24.5813 256.202 24.44 255.882 24.36C255.77 24.328 255.647 24.3093 255.514 24.304C255.381 24.2933 255.261 24.288 255.154 24.288H252.402V28.176Z" fill="black"/>
<path d="M261.173 34V22.48H268.613V24.288H263.101V27.128H267.653V28.936H263.101V32.192H268.613V34H261.173Z" fill="black"/>
<path d="M271.012 34V22.48H272.748L276.732 30.64L280.716 22.48H282.452V34H280.652V26.616L277.116 34H276.348L272.82 26.616V34H271.012Z" fill="black"/>
<path d="M290.051 34.24C288.899 34.24 287.913 33.9893 287.091 33.488C286.27 32.9813 285.638 32.2773 285.195 31.376C284.758 30.4747 284.539 29.4293 284.539 28.24C284.539 27.0507 284.758 26.0053 285.195 25.104C285.638 24.2027 286.27 23.5013 287.091 23C287.913 22.4933 288.899 22.24 290.051 22.24C291.203 22.24 292.19 22.4933 293.011 23C293.838 23.5013 294.47 24.2027 294.907 25.104C295.35 26.0053 295.571 27.0507 295.571 28.24C295.571 29.4293 295.35 30.4747 294.907 31.376C294.47 32.2773 293.838 32.9813 293.011 33.488C292.19 33.9893 291.203 34.24 290.051 34.24ZM290.051 32.424C290.825 32.4293 291.467 32.2587 291.979 31.912C292.497 31.5653 292.883 31.0773 293.139 30.448C293.401 29.8187 293.531 29.0827 293.531 28.24C293.531 27.3973 293.401 26.6667 293.139 26.048C292.883 25.424 292.497 24.9387 291.979 24.592C291.467 24.2453 290.825 24.0667 290.051 24.056C289.278 24.0507 288.635 24.2213 288.123 24.568C287.611 24.9147 287.225 25.4027 286.963 26.032C286.707 26.6613 286.579 27.3973 286.579 28.24C286.579 29.0827 286.707 29.816 286.963 30.44C287.219 31.0587 287.604 31.5413 288.115 31.888C288.633 32.2347 289.278 32.4133 290.051 32.424Z" fill="black"/>
<path d="M297.644 34V22.48H299.572V27.328H305.028V22.48H306.948V34H305.028V29.136H299.572V34H297.644Z" fill="black"/>
<path d="M312.439 34V24.288H308.711V22.48H318.095V24.288H314.367V34H312.439Z" fill="black"/>
<path d="M115.12 56V44.48H124.456V56H122.528V46.288H117.048V56H115.12Z" fill="black"/>
<path d="M127.178 56V44.48H131.938C132.05 44.48 132.194 44.4853 132.37 44.496C132.546 44.5013 132.709 44.5173 132.858 44.544C133.525 44.6453 134.074 44.8667 134.506 45.208C134.944 45.5493 135.266 45.9813 135.474 46.504C135.688 47.0213 135.794 47.5973 135.794 48.232C135.794 48.8613 135.688 49.4373 135.474 49.96C135.261 50.4773 134.936 50.9067 134.498 51.248C134.066 51.5893 133.52 51.8107 132.858 51.912C132.709 51.9333 132.544 51.9493 132.362 51.96C132.186 51.9707 132.045 51.976 131.938 51.976H129.106V56H127.178ZM129.106 50.176H131.858C131.965 50.176 132.085 50.1707 132.218 50.16C132.352 50.1493 132.474 50.128 132.586 50.096C132.906 50.016 133.157 49.8747 133.338 49.672C133.525 49.4693 133.656 49.24 133.73 48.984C133.81 48.728 133.85 48.4773 133.85 48.232C133.85 47.9867 133.81 47.736 133.73 47.48C133.656 47.2187 133.525 46.9867 133.338 46.784C133.157 46.5813 132.906 46.44 132.586 46.36C132.474 46.328 132.352 46.3093 132.218 46.304C132.085 46.2933 131.965 46.288 131.858 46.288H129.106V50.176Z" fill="black"/>
<path d="M142.749 56.24C141.597 56.24 140.61 55.9893 139.789 55.488C138.968 54.9813 138.336 54.2773 137.893 53.376C137.456 52.4747 137.237 51.4293 137.237 50.24C137.237 49.0507 137.456 48.0053 137.893 47.104C138.336 46.2027 138.968 45.5013 139.789 45C140.61 44.4933 141.597 44.24 142.749 44.24C143.901 44.24 144.888 44.4933 145.709 45C146.536 45.5013 147.168 46.2027 147.605 47.104C148.048 48.0053 148.269 49.0507 148.269 50.24C148.269 51.4293 148.048 52.4747 147.605 53.376C147.168 54.2773 146.536 54.9813 145.709 55.488C144.888 55.9893 143.901 56.24 142.749 56.24ZM142.749 54.424C143.522 54.4293 144.165 54.2587 144.677 53.912C145.194 53.5653 145.581 53.0773 145.837 52.448C146.098 51.8187 146.229 51.0827 146.229 50.24C146.229 49.3973 146.098 48.6667 145.837 48.048C145.581 47.424 145.194 46.9387 144.677 46.592C144.165 46.2453 143.522 46.0667 142.749 46.056C141.976 46.0507 141.333 46.2213 140.821 46.568C140.309 46.9147 139.922 47.4027 139.661 48.032C139.405 48.6613 139.277 49.3973 139.277 50.24C139.277 51.0827 139.405 51.816 139.661 52.44C139.917 53.0587 140.301 53.5413 140.813 53.888C141.33 54.2347 141.976 54.4133 142.749 54.424Z" fill="black"/>
<path d="M150.341 56V44.48H152.077L156.061 52.64L160.045 44.48H161.781V56H159.981V48.616L156.445 56H155.677L152.149 48.616V56H150.341Z" fill="black"/>
<path d="M164.493 56V44.48H166.421V48.504H169.253C169.36 48.504 169.504 48.5093 169.685 48.52C169.866 48.5253 170.032 48.5413 170.181 48.568C170.842 48.6693 171.389 48.8907 171.821 49.232C172.258 49.5733 172.581 50.0053 172.789 50.528C173.002 51.0453 173.109 51.6187 173.109 52.248C173.109 52.8827 173.002 53.4613 172.789 53.984C172.581 54.5013 172.258 54.9307 171.821 55.272C171.389 55.6133 170.842 55.8347 170.181 55.936C170.032 55.9573 169.866 55.9733 169.685 55.984C169.509 55.9947 169.365 56 169.253 56H164.493ZM166.421 54.192H169.173C169.285 54.192 169.405 54.1867 169.533 54.176C169.666 54.1653 169.792 54.1467 169.909 54.12C170.224 54.04 170.472 53.8987 170.653 53.696C170.84 53.4933 170.97 53.264 171.045 53.008C171.125 52.7467 171.165 52.4933 171.165 52.248C171.165 52.0027 171.125 51.752 171.045 51.496C170.97 51.24 170.84 51.0107 170.653 50.808C170.472 50.6053 170.224 50.464 169.909 50.384C169.792 50.352 169.666 50.3307 169.533 50.32C169.405 50.3093 169.285 50.304 169.173 50.304H166.421V54.192ZM174.261 56V44.48H176.189V56H174.261Z" fill="black"/>
<path d="M178.895 56V44.48H180.823V54.192H184.383V44.48H186.311V54.192H189.879V44.48H191.799V56H178.895Z" fill="black"/>
<path d="M193.716 56V54.384C193.972 54.4 194.188 54.3813 194.364 54.328C194.54 54.2693 194.686 54.16 194.804 54C194.926 53.8347 195.033 53.6027 195.124 53.304C195.214 53 195.302 52.6187 195.388 52.16C195.51 51.504 195.612 50.8213 195.692 50.112C195.777 49.3973 195.849 48.696 195.908 48.008C195.966 47.3147 196.012 46.664 196.044 46.056C196.076 45.448 196.102 44.9227 196.124 44.48H203.836V56H201.908V46.288H197.908C197.881 46.6453 197.849 47.0773 197.812 47.584C197.78 48.0853 197.734 48.6293 197.676 49.216C197.622 49.8027 197.553 50.4107 197.468 51.04C197.388 51.6693 197.289 52.288 197.172 52.896C197.065 53.4507 196.937 53.9493 196.788 54.392C196.638 54.8293 196.438 55.192 196.188 55.48C195.942 55.7627 195.62 55.952 195.22 56.048C194.825 56.144 194.324 56.128 193.716 56Z" fill="black"/>
<path d="M206.558 56V44.48H213.998V46.288H208.486V49.128H213.038V50.936H208.486V54.192H213.998V56H206.558Z" fill="black"/>
<path d="M216.398 56V44.48H218.326V49.328H223.782V44.48H225.702V56H223.782V51.136H218.326V56H216.398Z" fill="black"/>
<path d="M228.424 56V44.48H230.352V49.328H235.808V44.48H237.728V56H235.808V51.136H230.352V56H228.424Z" fill="black"/>
<path d="M245.323 56.24C244.171 56.24 243.185 55.9893 242.363 55.488C241.542 54.9813 240.91 54.2773 240.467 53.376C240.03 52.4747 239.811 51.4293 239.811 50.24C239.811 49.0507 240.03 48.0053 240.467 47.104C240.91 46.2027 241.542 45.5013 242.363 45C243.185 44.4933 244.171 44.24 245.323 44.24C246.475 44.24 247.462 44.4933 248.283 45C249.11 45.5013 249.742 46.2027 250.179 47.104C250.622 48.0053 250.843 49.0507 250.843 50.24C250.843 51.4293 250.622 52.4747 250.179 53.376C249.742 54.2773 249.11 54.9813 248.283 55.488C247.462 55.9893 246.475 56.24 245.323 56.24ZM245.323 54.424C246.097 54.4293 246.739 54.2587 247.251 53.912C247.769 53.5653 248.155 53.0773 248.411 52.448C248.673 51.8187 248.803 51.0827 248.803 50.24C248.803 49.3973 248.673 48.6667 248.411 48.048C248.155 47.424 247.769 46.9387 247.251 46.592C246.739 46.2453 246.097 46.0667 245.323 46.056C244.55 46.0507 243.907 46.2213 243.395 46.568C242.883 46.9147 242.497 47.4027 242.235 48.032C241.979 48.6613 241.851 49.3973 241.851 50.24C241.851 51.0827 241.979 51.816 242.235 52.44C242.491 53.0587 242.875 53.5413 243.387 53.888C243.905 54.2347 244.55 54.4133 245.323 54.424Z" fill="black"/>
<path d="M252.916 56V44.48H254.868V52.6L260.212 44.48H262.164V56H260.212V47.88L254.868 56H252.916ZM257.532 43.504C257.084 43.504 256.676 43.3947 256.308 43.176C255.945 42.9573 255.654 42.6667 255.436 42.304C255.217 41.936 255.108 41.528 255.108 41.08H256.612C256.612 41.336 256.7 41.5547 256.876 41.736C257.057 41.912 257.276 42 257.532 42C257.788 42 258.004 41.912 258.18 41.736C258.361 41.5547 258.452 41.336 258.452 41.08H259.956C259.956 41.528 259.846 41.936 259.628 42.304C259.409 42.6667 259.116 42.9573 258.748 43.176C258.38 43.3947 257.974 43.504 257.532 43.504Z" fill="black"/>
<path d="M273.083 56.24C272.225 56.24 271.457 56.1067 270.779 55.84C270.102 55.568 269.529 55.1627 269.059 54.624C268.59 54.08 268.238 53.4053 268.003 52.6L269.891 52.128C270.105 52.8107 270.481 53.3653 271.019 53.792C271.558 54.2187 272.206 54.4293 272.963 54.424C273.491 54.4133 273.99 54.3093 274.459 54.112C274.934 53.9147 275.321 53.6107 275.619 53.2C275.859 52.896 276.035 52.5707 276.147 52.224C276.259 51.872 276.337 51.5093 276.379 51.136H272.299V49.328H276.395C276.31 48.6773 276.123 48.1067 275.835 47.616C275.547 47.12 275.161 46.736 274.675 46.464C274.195 46.1867 273.625 46.0533 272.963 46.064C272.174 46.0693 271.507 46.288 270.963 46.72C270.419 47.152 270.049 47.736 269.851 48.472L267.923 48.2C268.211 46.9413 268.803 45.968 269.699 45.28C270.595 44.5867 271.723 44.24 273.083 44.24C274.198 44.24 275.155 44.4933 275.955 45C276.761 45.5013 277.379 46.2027 277.811 47.104C278.249 48.0053 278.47 49.0507 278.475 50.24C278.481 51.36 278.27 52.3733 277.843 53.28C277.417 54.1867 276.798 54.9067 275.987 55.44C275.182 55.9733 274.214 56.24 273.083 56.24Z" fill="black"/>
<path d="M279.446 56V54.384C279.702 54.4 279.918 54.3813 280.094 54.328C280.27 54.2693 280.417 54.16 280.534 54C280.657 53.8347 280.764 53.6027 280.854 53.304C280.945 53 281.033 52.6187 281.118 52.16C281.241 51.504 281.342 50.8213 281.422 50.112C281.508 49.3973 281.58 48.696 281.638 48.008C281.697 47.3147 281.742 46.664 281.774 46.056C281.806 45.448 281.833 44.9227 281.854 44.48H289.566V56H287.638V46.288H283.638C283.612 46.6453 283.58 47.0773 283.542 47.584C283.51 48.0853 283.465 48.6293 283.406 49.216C283.353 49.8027 283.284 50.4107 283.198 51.04C283.118 51.6693 283.02 52.288 282.902 52.896C282.796 53.4507 282.668 53.9493 282.518 54.392C282.369 54.8293 282.169 55.192 281.918 55.48C281.673 55.7627 281.35 55.952 280.95 56.048C280.556 56.144 280.054 56.128 279.446 56Z" fill="black"/>
<path d="M292.289 56V44.48H299.729V46.288H294.217V49.128H298.769V50.936H294.217V54.192H299.729V56H292.289Z" fill="black"/>
<path d="M302.128 56V44.48H304.056V49.824L308.656 44.48H311.024L306.072 50.128L311.36 56H308.912L304.056 50.624V56H302.128Z" fill="black"/>
<path d="M315.736 56V46.288H312.008V44.48H321.392V46.288H317.664V56H315.736Z" fill="black"/>
<path d="M323.151 56V44.48H327.911C328.023 44.48 328.167 44.4853 328.343 44.496C328.519 44.5013 328.681 44.5173 328.831 44.544C329.497 44.6453 330.047 44.8667 330.479 45.208C330.916 45.5493 331.239 45.9813 331.447 46.504C331.66 47.0213 331.767 47.5973 331.767 48.232C331.767 48.8613 331.66 49.4373 331.447 49.96C331.233 50.4773 330.908 50.9067 330.471 51.248C330.039 51.5893 329.492 51.8107 328.831 51.912C328.681 51.9333 328.516 51.9493 328.335 51.96C328.159 51.9707 328.017 51.976 327.911 51.976H325.079V56H323.151ZM325.079 50.176H327.831C327.937 50.176 328.057 50.1707 328.191 50.16C328.324 50.1493 328.447 50.128 328.559 50.096C328.879 50.016 329.129 49.8747 329.311 49.672C329.497 49.4693 329.628 49.24 329.703 48.984C329.783 48.728 329.823 48.4773 329.823 48.232C329.823 47.9867 329.783 47.736 329.703 47.48C329.628 47.2187 329.497 46.9867 329.311 46.784C329.129 46.5813 328.879 46.44 328.559 46.36C328.447 46.328 328.324 46.3093 328.191 46.304C328.057 46.2933 327.937 46.288 327.831 46.288H325.079V50.176Z" fill="black"/>
<path d="M338.721 56.24C337.569 56.24 336.583 55.9893 335.761 55.488C334.94 54.9813 334.308 54.2773 333.865 53.376C333.428 52.4747 333.209 51.4293 333.209 50.24C333.209 49.0507 333.428 48.0053 333.865 47.104C334.308 46.2027 334.94 45.5013 335.761 45C336.583 44.4933 337.569 44.24 338.721 44.24C339.873 44.24 340.86 44.4933 341.681 45C342.508 45.5013 343.14 46.2027 343.577 47.104C344.02 48.0053 344.241 49.0507 344.241 50.24C344.241 51.4293 344.02 52.4747 343.577 53.376C343.14 54.2773 342.508 54.9813 341.681 55.488C340.86 55.9893 339.873 56.24 338.721 56.24ZM338.721 54.424C339.495 54.4293 340.137 54.2587 340.649 53.912C341.167 53.5653 341.553 53.0773 341.809 52.448C342.071 51.8187 342.201 51.0827 342.201 50.24C342.201 49.3973 342.071 48.6667 341.809 48.048C341.553 47.424 341.167 46.9387 340.649 46.592C340.137 46.2453 339.495 46.0667 338.721 46.056C337.948 46.0507 337.305 46.2213 336.793 46.568C336.281 46.9147 335.895 47.4027 335.633 48.032C335.377 48.6613 335.249 49.3973 335.249 50.24C335.249 51.0827 335.377 51.816 335.633 52.44C335.889 53.0587 336.273 53.5413 336.785 53.888C337.303 54.2347 337.948 54.4133 338.721 54.424Z" fill="black"/>
<path d="M346.314 56V44.48H348.242V49.328H353.698V44.48H355.618V56H353.698V51.136H348.242V56H346.314Z" fill="black"/>
<path d="M367.589 56H365.637V47.88L360.293 56H358.341V44.48H360.293V52.6L365.637 44.48H367.589V56Z" fill="black"/>
<path d="M370.305 56V44.48H372.233V49.824L376.833 44.48H379.201L374.249 50.128L379.537 56H377.089L372.233 50.624V56H370.305Z" fill="black"/>
<path d="M390.392 56H388.44V47.88L383.096 56H381.145V44.48H383.096V52.6L388.44 44.48H390.392V56Z" fill="black"/>
<path d="M115.12 78V66.48H117.048V71.328H122.504V66.48H124.424V78H122.504V73.136H117.048V78H115.12Z" fill="black"/>
<path d="M126.347 78L129.979 66.48H132.803L136.435 78H134.451L131.155 67.664H131.587L128.331 78H126.347ZM128.371 75.504V73.704H134.419V75.504H128.371Z" fill="black"/>
<path d="M142.044 78V66.48H143.972V71.824L148.572 66.48H150.94L145.988 72.128L151.276 78H148.828L143.972 72.624V78H142.044Z" fill="black"/>
<path d="M157.131 78.24C155.979 78.24 154.992 77.9893 154.171 77.488C153.35 76.9813 152.718 76.2773 152.275 75.376C151.838 74.4747 151.619 73.4293 151.619 72.24C151.619 71.0507 151.838 70.0053 152.275 69.104C152.718 68.2027 153.35 67.5013 154.171 67C154.992 66.4933 155.979 66.24 157.131 66.24C158.283 66.24 159.27 66.4933 160.091 67C160.918 67.5013 161.55 68.2027 161.987 69.104C162.43 70.0053 162.651 71.0507 162.651 72.24C162.651 73.4293 162.43 74.4747 161.987 75.376C161.55 76.2773 160.918 76.9813 160.091 77.488C159.27 77.9893 158.283 78.24 157.131 78.24ZM157.131 76.424C157.904 76.4293 158.547 76.2587 159.059 75.912C159.576 75.5653 159.963 75.0773 160.219 74.448C160.48 73.8187 160.611 73.0827 160.611 72.24C160.611 71.3973 160.48 70.6667 160.219 70.048C159.963 69.424 159.576 68.9387 159.059 68.592C158.547 68.2453 157.904 68.0667 157.131 68.056C156.358 68.0507 155.715 68.2213 155.203 68.568C154.691 68.9146 154.304 69.4027 154.043 70.032C153.787 70.6613 153.659 71.3973 153.659 72.24C153.659 73.0827 153.787 73.816 154.043 74.44C154.299 75.0587 154.683 75.5413 155.195 75.888C155.712 76.2347 156.358 76.4133 157.131 76.424Z" fill="black"/>
<path d="M164.723 78V66.48H166.459L170.443 74.64L174.427 66.48H176.163V78H174.363V70.616L170.827 78H170.059L166.531 70.616V78H164.723Z" fill="black"/>
<path d="M178.891 78V66.48H188.227V78H186.299V68.288H180.819V78H178.891Z" fill="black"/>
<path d="M195.821 78.24C194.669 78.24 193.682 77.9893 192.861 77.488C192.04 76.9813 191.408 76.2773 190.965 75.376C190.528 74.4747 190.309 73.4293 190.309 72.24C190.309 71.0507 190.528 70.0053 190.965 69.104C191.408 68.2027 192.04 67.5013 192.861 67C193.682 66.4933 194.669 66.24 195.821 66.24C196.973 66.24 197.96 66.4933 198.781 67C199.608 67.5013 200.24 68.2027 200.677 69.104C201.12 70.0053 201.341 71.0507 201.341 72.24C201.341 73.4293 201.12 74.4747 200.677 75.376C200.24 76.2773 199.608 76.9813 198.781 77.488C197.96 77.9893 196.973 78.24 195.821 78.24ZM195.821 76.424C196.594 76.4293 197.237 76.2587 197.749 75.912C198.266 75.5653 198.653 75.0773 198.909 74.448C199.17 73.8187 199.301 73.0827 199.301 72.24C199.301 71.3973 199.17 70.6667 198.909 70.048C198.653 69.424 198.266 68.9387 197.749 68.592C197.237 68.2453 196.594 68.0667 195.821 68.056C195.048 68.0507 194.405 68.2213 193.893 68.568C193.381 68.9146 192.994 69.4027 192.733 70.032C192.477 70.6613 192.349 71.3973 192.349 72.24C192.349 73.0827 192.477 73.816 192.733 74.44C192.989 75.0587 193.373 75.5413 193.885 75.888C194.402 76.2347 195.048 76.4133 195.821 76.424Z" fill="black"/>
<path d="M203.413 78V66.48H205.341V71.328H210.797V66.48H212.717V78H210.797V73.136H205.341V78H203.413Z" fill="black"/>
<path d="M215.44 78V66.48H222.88V68.288H217.368V71.128H221.92V72.936H217.368V76.192H222.88V78H215.44Z" fill="black"/>
<path d="M225.279 78V66.48H227.207V71.328H232.663V66.48H234.583V78H232.663V73.136H227.207V78H225.279Z" fill="black"/>
<path d="M240.074 78V68.288H236.346V66.48H245.73V68.288H242.002V78H240.074Z" fill="black"/>
<path d="M247.489 78V66.48H249.417V71.328H254.873V66.48H256.793V78H254.873V73.136H249.417V78H247.489Z" fill="black"/>
<path d="M264.388 78.24C263.236 78.24 262.25 77.9893 261.428 77.488C260.607 76.9813 259.975 76.2773 259.532 75.376C259.095 74.4747 258.876 73.4293 258.876 72.24C258.876 71.0507 259.095 70.0053 259.532 69.104C259.975 68.2027 260.607 67.5013 261.428 67C262.25 66.4933 263.236 66.24 264.388 66.24C265.54 66.24 266.527 66.4933 267.348 67C268.175 67.5013 268.807 68.2027 269.244 69.104C269.687 70.0053 269.908 71.0507 269.908 72.24C269.908 73.4293 269.687 74.4747 269.244 75.376C268.807 76.2773 268.175 76.9813 267.348 77.488C266.527 77.9893 265.54 78.24 264.388 78.24ZM264.388 76.424C265.162 76.4293 265.804 76.2587 266.316 75.912C266.834 75.5653 267.22 75.0773 267.476 74.448C267.738 73.8187 267.868 73.0827 267.868 72.24C267.868 71.3973 267.738 70.6667 267.476 70.048C267.22 69.424 266.834 68.9387 266.316 68.592C265.804 68.2453 265.162 68.0667 264.388 68.056C263.615 68.0507 262.972 68.2213 262.46 68.568C261.948 68.9146 261.562 69.4027 261.3 70.032C261.044 70.6613 260.916 71.3973 260.916 72.24C260.916 73.0827 261.044 73.816 261.3 74.44C261.556 75.0587 261.94 75.5413 262.452 75.888C262.97 76.2347 263.615 76.4133 264.388 76.424Z" fill="black"/>
<path d="M271.981 78V66.48H273.717L277.701 74.64L281.685 66.48H283.421V78H281.621V70.616L278.085 78H277.317L273.789 70.616V78H271.981Z" fill="black"/>
<path d="M291.351 78L292.871 74.896L288.895 66.48H291.071L293.879 72.864L296.775 66.48H298.831L293.407 78H291.351Z" fill="black"/>
<path d="M300.499 78V66.48H305.259C305.371 66.48 305.515 66.4853 305.691 66.496C305.867 66.5013 306.03 66.5173 306.179 66.544C306.846 66.6453 307.395 66.8667 307.827 67.208C308.264 67.5493 308.587 67.9813 308.795 68.504C309.008 69.0213 309.115 69.5973 309.115 70.232C309.115 70.8613 309.008 71.4373 308.795 71.96C308.582 72.4773 308.256 72.9067 307.819 73.248C307.387 73.5893 306.84 73.8107 306.179 73.912C306.03 73.9333 305.864 73.9493 305.683 73.96C305.507 73.9707 305.366 73.976 305.259 73.976H302.427V78H300.499ZM302.427 72.176H305.179C305.286 72.176 305.406 72.1707 305.539 72.16C305.672 72.1493 305.795 72.128 305.907 72.096C306.227 72.016 306.478 71.8747 306.659 71.672C306.846 71.4693 306.976 71.24 307.051 70.984C307.131 70.728 307.171 70.4773 307.171 70.232C307.171 69.9867 307.131 69.736 307.051 69.48C306.976 69.2187 306.846 68.9867 306.659 68.784C306.478 68.5813 306.227 68.44 305.907 68.36C305.795 68.328 305.672 68.3093 305.539 68.304C305.406 68.2933 305.286 68.288 305.179 68.288H302.427V72.176Z" fill="black"/>
<path d="M316.07 78.24C314.918 78.24 313.931 77.9893 313.11 77.488C312.288 76.9813 311.656 76.2773 311.214 75.376C310.776 74.4747 310.558 73.4293 310.558 72.24C310.558 71.0507 310.776 70.0053 311.214 69.104C311.656 68.2027 312.288 67.5013 313.11 67C313.931 66.4933 314.918 66.24 316.07 66.24C317.222 66.24 318.208 66.4933 319.03 67C319.856 67.5013 320.488 68.2027 320.926 69.104C321.368 70.0053 321.59 71.0507 321.59 72.24C321.59 73.4293 321.368 74.4747 320.926 75.376C320.488 76.2773 319.856 76.9813 319.03 77.488C318.208 77.9893 317.222 78.24 316.07 78.24ZM316.07 76.424C316.843 76.4293 317.486 76.2587 317.998 75.912C318.515 75.5653 318.902 75.0773 319.158 74.448C319.419 73.8187 319.55 73.0827 319.55 72.24C319.55 71.3973 319.419 70.6667 319.158 70.048C318.902 69.424 318.515 68.9387 317.998 68.592C317.486 68.2453 316.843 68.0667 316.07 68.056C315.296 68.0507 314.654 68.2213 314.142 68.568C313.63 68.9146 313.243 69.4027 312.982 70.032C312.726 70.6613 312.598 71.3973 312.598 72.24C312.598 73.0827 312.726 73.816 312.982 74.44C313.238 75.0587 313.622 75.5413 314.134 75.888C314.651 76.2347 315.296 76.4133 316.07 76.424Z" fill="black"/>
<path d="M323.662 78V66.48H328.23C329.009 66.48 329.646 66.6373 330.142 66.952C330.643 67.2613 331.014 67.6587 331.254 68.144C331.499 68.6293 331.622 69.1307 331.622 69.648C331.622 70.2827 331.47 70.8213 331.166 71.264C330.867 71.7067 330.459 72.0053 329.942 72.16V71.76C330.667 71.9253 331.217 72.2693 331.59 72.792C331.969 73.3147 332.158 73.9093 332.158 74.576C332.158 75.2587 332.027 75.856 331.766 76.368C331.505 76.88 331.115 77.28 330.598 77.568C330.086 77.856 329.451 78 328.694 78H323.662ZM325.614 76.184H328.454C328.79 76.184 329.091 76.1173 329.358 75.984C329.625 75.8453 329.833 75.6533 329.982 75.408C330.137 75.1573 330.214 74.8613 330.214 74.52C330.214 74.2107 330.147 73.9333 330.014 73.688C329.881 73.4427 329.686 73.248 329.43 73.104C329.174 72.9547 328.867 72.88 328.51 72.88H325.614V76.184ZM325.614 71.08H328.206C328.483 71.08 328.731 71.0267 328.95 70.92C329.169 70.8133 329.342 70.656 329.47 70.448C329.598 70.24 329.662 69.984 329.662 69.68C329.662 69.28 329.534 68.9467 329.278 68.68C329.022 68.4133 328.665 68.28 328.206 68.28H325.614V71.08Z" fill="black"/>
<path d="M334.236 78V66.48H336.164V71.328H341.62V66.48H343.54V78H341.62V73.136H336.164V78H334.236Z" fill="black"/>
<path d="M346.263 78V66.48H353.703V68.288H348.191V71.128H352.743V72.936H348.191V76.192H353.703V78H346.263Z" fill="black"/>
</svg>
