<svg width="40" height="40" viewBox="0 0 40 40" fill="none" xmlns="http://www.w3.org/2000/svg">
<circle cx="20" cy="20" r="19.5" stroke="#FBFBFB" stroke-opacity="0.2"/>
<path d="M27.9998 16.373V23.5C27.9998 24.163 27.7364 24.7989 27.2675 25.2678C26.7987 25.7366 26.1628 26 25.4998 26H14.4998C13.8367 26 13.2008 25.7366 12.732 25.2678C12.2631 24.7989 11.9998 24.163 11.9998 23.5V16.373L19.7458 20.931C19.8227 20.9764 19.9104 21.0003 19.9998 21.0003C20.0891 21.0003 20.1768 20.9764 20.2538 20.931L27.9998 16.373ZM25.4998 13C26.1149 12.9999 26.7085 13.2266 27.167 13.6367C27.6254 14.0469 27.9166 14.6116 27.9848 15.223L19.9998 19.92L12.0148 15.223C12.0829 14.6116 12.3741 14.0469 12.8326 13.6367C13.291 13.2266 13.8846 12.9999 14.4998 13H25.4998Z" fill="white"/>
</svg>
