<svg width="40" height="40" viewBox="0 0 40 40" fill="none" xmlns="http://www.w3.org/2000/svg">
<path d="M27.6889 24.7226L25.9151 23.54L24.3383 22.489C24.034 22.2865 23.625 22.3529 23.4004 22.6412L22.4247 23.8956C22.2151 24.1677 21.838 24.246 21.5375 24.0796C20.8754 23.7113 20.0925 23.3645 18.3651 21.6349C16.6377 19.9053 16.2887 19.1246 15.9204 18.4625C15.754 18.162 15.8323 17.7849 16.1044 17.5754L17.3588 16.5997C17.6471 16.375 17.7135 15.9661 17.5111 15.6617L16.4923 14.1335L15.2774 12.3111C15.0706 12.0009 14.6567 11.9078 14.337 12.0995L12.9359 12.9401C12.5573 13.1632 12.2789 13.5234 12.1585 13.9461C11.7754 15.3431 11.6981 18.4247 16.6368 23.3634C21.5755 28.3021 24.6569 28.2246 26.0538 27.8414C26.4766 27.7211 26.8368 27.4427 27.0599 27.0641L27.9004 25.663C28.0922 25.3433 27.9991 24.9294 27.6889 24.7226Z" fill="white"/>
<circle cx="20" cy="20" r="19.5" stroke="white" stroke-opacity="0.19"/>
</svg>
