<svg width="42" height="48" viewBox="0 0 42 48" fill="none" xmlns="http://www.w3.org/2000/svg">
<path d="M1 20.9487L8.45303 26.3891H13.0952L20.9997 20.9487" stroke="#DC2224" stroke-miterlimit="10" stroke-linecap="round" stroke-linejoin="round"/>
<path d="M1 27.7484L8.45303 33.5592H12.1685" stroke="#DC2224" stroke-miterlimit="10" stroke-linecap="round" stroke-linejoin="round"/>
<path d="M20.9998 38.8416L29.6825 33.9298V29.2773" stroke="#DC2224" stroke-miterlimit="10" stroke-linecap="round" stroke-linejoin="round"/>
<path d="M35.7326 38.2615V23.3688L28.0032 18.3645" stroke="#DC2224" stroke-miterlimit="10" stroke-linecap="round" stroke-linejoin="round"/>
<path d="M20.9998 11.3204L10.1719 18.0836" stroke="#DC2224" stroke-miterlimit="10" stroke-linecap="round" stroke-linejoin="round"/>
<path d="M20.9998 1V11.1689" stroke="#DC2224" stroke-miterlimit="10" stroke-linecap="round" stroke-linejoin="round"/>
<path d="M20.9998 27.7484V47.1882L41 35.6411V12.547L34.5908 8.84692V14.0983" stroke="#DC2224" stroke-miterlimit="10" stroke-linecap="round" stroke-linejoin="round"/>
<path d="M6.97156 40.5931L1 35.6412V12.5471L20.9997 1L27.3643 4.67437" stroke="#DC2224" stroke-miterlimit="10" stroke-linecap="round" stroke-linejoin="round"/>
<path d="M22.7191 27.7486C22.7191 28.6979 21.9496 29.4674 21.0003 29.4674C20.051 29.4674 19.2815 28.6979 19.2815 27.7486C19.2815 26.7993 20.051 26.0298 21.0003 26.0298C21.9491 26.0298 22.7191 26.7993 22.7191 27.7486Z" fill="#DC2224"/>
<path d="M11.8909 18.0834C11.8909 19.0327 11.1214 19.8022 10.1722 19.8022C9.22287 19.8022 8.45337 19.0327 8.45337 18.0834C8.45337 17.1341 9.22287 16.3646 10.1722 16.3646C11.1214 16.3646 11.8909 17.1341 11.8909 18.0834Z" fill="#DC2224"/>
<path d="M22.7191 11.3205C22.7191 12.2698 21.9496 13.0392 21.0003 13.0392C20.051 13.0392 19.2815 12.2698 19.2815 11.3205C19.2815 10.3712 20.051 9.60168 21.0003 9.60168C21.9491 9.60168 22.7191 10.3712 22.7191 11.3205Z" fill="#DC2224"/>
<path d="M30.1326 18.3645C30.1326 19.3138 29.3631 20.0833 28.4139 20.0833C27.4646 20.0833 26.6951 19.3138 26.6951 18.3645C26.6951 17.4152 27.4646 16.6458 28.4139 16.6458C29.3631 16.6458 30.1326 17.4152 30.1326 18.3645Z" fill="#DC2224"/>
<path d="M22.7191 20.7962C22.7191 21.7455 21.9496 22.515 21.0003 22.515C20.051 22.515 19.2815 21.7455 19.2815 20.7962C19.2815 19.8469 20.051 19.0774 21.0003 19.0774C21.9491 19.0774 22.7191 19.8469 22.7191 20.7962Z" fill="#DC2224"/>
<path d="M29.722 5.17715C29.722 6.12644 28.9525 6.89594 28.0032 6.89594C27.0539 6.89594 26.2844 6.12644 26.2844 5.17715C26.2844 4.22787 27.0539 3.45837 28.0032 3.45837C28.9525 3.45837 29.722 4.22787 29.722 5.17715Z" fill="#DC2224"/>
<path d="M8.91119 41.057C8.91119 42.0063 8.14169 42.7758 7.1924 42.7758C6.24312 42.7758 5.47363 42.0063 5.47363 41.057C5.47363 40.1078 6.24312 39.3383 7.1924 39.3383C8.14169 39.3383 8.91119 40.1078 8.91119 41.057Z" fill="#DC2224"/>
<path d="M13.8875 33.5594C13.8875 34.5086 13.118 35.2781 12.1687 35.2781C11.2195 35.2781 10.45 34.5086 10.45 33.5594C10.45 32.6101 11.2195 31.8406 12.1687 31.8406C13.118 31.8406 13.8875 32.6101 13.8875 33.5594Z" fill="#DC2224"/>
<path d="M31.4012 28.9289C31.4012 29.8782 30.6317 30.6477 29.6824 30.6477C28.7331 30.6477 27.9636 29.8782 27.9636 28.9289C27.9636 27.9796 28.7331 27.2101 29.6824 27.2101C30.6317 27.2101 31.4012 27.9796 31.4012 28.9289Z" fill="#DC2224"/>
</svg>
