<svg width="38" height="38" viewBox="0 0 38 38" fill="none" xmlns="http://www.w3.org/2000/svg">
<circle cx="19" cy="19" r="19" fill="url(#paint0_linear_224_2309)"/>
<path d="M19.0025 10.45C16.7352 10.4523 14.5614 11.3536 12.9581 12.9562C11.3547 14.5587 10.4527 16.7317 10.45 18.9983C10.4482 20.6122 10.9016 22.1848 11.7569 23.5463L11.9595 23.8691L11.0957 27.0229L14.333 26.1748L14.6438 26.3602C15.9619 27.1401 17.4657 27.5511 18.9974 27.55H18.9991C21.2656 27.5468 23.4384 26.6454 25.0413 25.0434C26.6442 23.4413 27.5463 21.2693 27.5499 19.0035C27.5538 17.8803 27.3348 16.7676 26.9056 15.7296C26.4764 14.6917 25.8455 13.7492 25.0494 12.9567C24.2574 12.1598 23.3152 11.5279 22.2772 11.0976C21.2392 10.6674 20.1262 10.4472 19.0025 10.45ZM24.031 22.6707C23.8163 23.2716 22.7893 23.8175 22.2964 23.8914C21.7561 23.9845 21.2015 23.9498 20.6769 23.7901C20.1793 23.636 19.6903 23.4555 19.212 23.2493C16.6325 22.1367 14.9495 19.5426 14.819 19.3692C14.6919 19.1975 13.7714 17.9751 13.7714 16.7114C13.7714 15.4461 14.4343 14.8246 14.6696 14.5671C14.7559 14.4695 14.8615 14.3908 14.9797 14.3358C15.0979 14.2809 15.2262 14.2509 15.3565 14.2477C15.5282 14.2477 15.6983 14.2495 15.8494 14.2563C16.0074 14.2632 16.2186 14.1962 16.4264 14.6976C16.6411 15.2126 17.1563 16.4762 17.2199 16.605C17.2834 16.732 17.3263 16.8831 17.2422 17.0548C17.1563 17.2282 17.1151 17.3329 16.9846 17.484C16.8575 17.6351 16.715 17.8188 16.5999 17.9356C16.4711 18.0626 16.3371 18.2017 16.4865 18.4592C16.6377 18.715 17.1529 19.558 17.9154 20.2396C18.8977 21.1152 19.7272 21.3847 19.9831 21.5152C20.2407 21.6423 20.3901 21.6234 20.5413 21.45C20.6907 21.2766 21.1836 20.6997 21.3553 20.4439C21.5271 20.1864 21.6971 20.2293 21.9341 20.3134C22.1694 20.401 23.4333 21.0208 23.6892 21.1495C23.9434 21.2766 24.1169 21.3418 24.1821 21.45C24.2439 21.5564 24.2439 22.0698 24.031 22.6707Z" fill="white"/>
<defs>
<linearGradient id="paint0_linear_224_2309" x1="19" y1="0" x2="19" y2="38" gradientUnits="userSpaceOnUse">
<stop stop-color="#03C13D"/>
<stop offset="1" stop-color="#018F31"/>
</linearGradient>
</defs>
</svg>
