<svg width="391" height="94" viewBox="0 0 391 94" fill="none" xmlns="http://www.w3.org/2000/svg">
<path d="M21.6669 85.0317L16.8776 77.6281L19.7556 75.8925L25.7092 85.0317H21.6669ZM11.6709 85.0317V69.6533H15.2079V85.0317H11.6709ZM14.1754 78.8364V75.8706H19.5359V78.8364H14.1754ZM20.0851 77.738L16.8117 77.3425L21.7987 69.6533H25.5554L20.0851 77.738Z" fill="white"/>
<path d="M30.2325 85.0317V69.6533H36.8892C38.2659 69.6533 39.4522 69.8803 40.4482 70.3343C41.4441 70.7737 42.213 71.4108 42.7549 72.2456C43.2968 73.0805 43.5678 74.0764 43.5678 75.2335C43.5678 76.3759 43.2968 77.3645 42.7549 78.1993C42.213 79.0341 41.4441 79.6786 40.4482 80.1326C39.4522 80.572 38.2659 80.7917 36.8892 80.7917H32.2097L33.7915 79.1879V85.0317H30.2325ZM33.7915 79.5834L32.2097 77.8917H36.6914C37.7899 77.8917 38.6101 77.6574 39.152 77.1887C39.6939 76.72 39.9649 76.0683 39.9649 75.2335C39.9649 74.384 39.6939 73.7249 39.152 73.2562C38.6101 72.7876 37.7899 72.5532 36.6914 72.5532H32.2097L33.7915 70.8616V79.5834Z" fill="white"/>
<path d="M48.7716 85.0317V69.6533H62.788V85.0317H59.2509V71.7404L60.0638 72.5532H51.4958L52.3086 71.7404V85.0317H48.7716Z" fill="white"/>
<path d="M72.3561 78.6167V75.8925H79.9574V78.6167H72.3561ZM74.3772 69.3896C75.5343 69.3896 76.5961 69.5874 77.5628 69.9828C78.5294 70.3636 79.3716 70.9128 80.0892 71.6305C80.8069 72.3482 81.3634 73.1903 81.7589 74.157C82.1543 75.1236 82.3521 76.1855 82.3521 77.3425C82.3521 78.4996 82.1543 79.5614 81.7589 80.528C81.3634 81.4947 80.8069 82.3368 80.0892 83.0545C79.3716 83.7722 78.5294 84.3287 77.5628 84.7242C76.5961 85.105 75.5343 85.2954 74.3772 85.2954C73.0151 85.2954 71.7849 85.061 70.6864 84.5924C69.6026 84.1237 68.6945 83.4426 67.9622 82.5492L70.2251 80.4402C70.767 81.0553 71.3674 81.5167 72.0265 81.8242C72.6856 82.1172 73.4106 82.2636 74.2015 82.2636C74.8605 82.2636 75.4684 82.1464 76.0249 81.9121C76.5961 81.6631 77.0794 81.3263 77.4749 80.9015C77.885 80.4621 78.1926 79.9422 78.3976 79.3417C78.6173 78.7412 78.7271 78.0748 78.7271 77.3425C78.7271 76.6102 78.6173 75.9438 78.3976 75.3433C78.1926 74.7428 77.885 74.2302 77.4749 73.8055C77.0794 73.3661 76.5961 73.0292 76.0249 72.7949C75.4684 72.5459 74.8605 72.4214 74.2015 72.4214C73.4106 72.4214 72.6856 72.5752 72.0265 72.8828C71.3674 73.1757 70.767 73.6297 70.2251 74.2448L67.9622 72.1358C68.6945 71.2424 69.6026 70.5613 70.6864 70.0927C71.7849 69.624 73.0151 69.3896 74.3772 69.3896Z" fill="white"/>
<path d="M24.0181 31.5884L32.597 37.8506H37.9404L47.039 31.5884" stroke="#DC2224" stroke-width="2" stroke-miterlimit="10" stroke-linecap="round" stroke-linejoin="round"/>
<path d="M24.0181 39.415L32.597 46.1036H36.8737" stroke="#DC2224" stroke-width="2" stroke-miterlimit="10" stroke-linecap="round" stroke-linejoin="round"/>
<path d="M47.0391 52.1839L57.0335 46.53V41.1748" stroke="#DC2224" stroke-width="2" stroke-miterlimit="10" stroke-linecap="round" stroke-linejoin="round"/>
<path d="M63.9973 51.5164V34.374L55.1003 28.6138" stroke="#DC2224" stroke-width="2" stroke-miterlimit="10" stroke-linecap="round" stroke-linejoin="round"/>
<path d="M47.039 20.5054L34.5754 28.2902" stroke="#DC2224" stroke-width="2" stroke-miterlimit="10" stroke-linecap="round" stroke-linejoin="round"/>
<path d="M47.0391 8.62598V20.331" stroke="#DC2224" stroke-width="2" stroke-miterlimit="10" stroke-linecap="round" stroke-linejoin="round"/>
<path d="M47.0391 39.415V61.7914L70.0606 48.5V21.9172L62.6832 17.6582V23.7029" stroke="#DC2224" stroke-width="2" stroke-miterlimit="10" stroke-linecap="round" stroke-linejoin="round"/>
<path d="M30.8917 54.2001L24.0181 48.5002V21.9174L47.039 8.62598L54.365 12.8554" stroke="#DC2224" stroke-width="2" stroke-miterlimit="10" stroke-linecap="round" stroke-linejoin="round"/>
<path d="M49.0181 39.4149C49.0181 40.5076 48.1324 41.3934 47.0397 41.3934C45.947 41.3934 45.0613 40.5076 45.0613 39.4149C45.0613 38.3223 45.947 37.4365 47.0397 37.4365C48.1318 37.4365 49.0181 38.3223 49.0181 39.4149Z" fill="#DC2224"/>
<path d="M36.5543 28.2899C36.5543 29.3826 35.6685 30.2684 34.5758 30.2684C33.4832 30.2684 32.5974 29.3826 32.5974 28.2899C32.5974 27.1973 33.4832 26.3115 34.5758 26.3115C35.6685 26.3115 36.5543 27.1973 36.5543 28.2899Z" fill="#DC2224"/>
<path d="M49.0181 20.5058C49.0181 21.5985 48.1324 22.4842 47.0397 22.4842C45.947 22.4842 45.0613 21.5985 45.0613 20.5058C45.0613 19.4131 45.947 18.5273 47.0397 18.5273C48.1318 18.5273 49.0181 19.4131 49.0181 20.5058Z" fill="#DC2224"/>
<path d="M57.5516 28.6137C57.5516 29.7064 56.6658 30.5921 55.5732 30.5921C54.4805 30.5921 53.5947 29.7064 53.5947 28.6137C53.5947 27.521 54.4805 26.6353 55.5732 26.6353C56.6658 26.6353 57.5516 27.521 57.5516 28.6137Z" fill="#DC2224"/>
<path d="M49.0181 31.4125C49.0181 32.5052 48.1324 33.3909 47.0397 33.3909C45.947 33.3909 45.0613 32.5052 45.0613 31.4125C45.0613 30.3198 45.947 29.4341 47.0397 29.4341C48.1318 29.4341 49.0181 30.3198 49.0181 31.4125Z" fill="#DC2224"/>
<path d="M57.0789 13.434C57.0789 14.5267 56.1932 15.4124 55.1005 15.4124C54.0078 15.4124 53.1221 14.5267 53.1221 13.434C53.1221 12.3413 54.0078 11.4556 55.1005 11.4556C56.1932 11.4556 57.0789 12.3413 57.0789 13.434Z" fill="#DC2224"/>
<path d="M33.1243 54.7338C33.1243 55.8265 32.2386 56.7122 31.1459 56.7122C30.0532 56.7122 29.1675 55.8265 29.1675 54.7338C29.1675 53.6411 30.0532 52.7554 31.1459 52.7554C32.2386 52.7554 33.1243 53.6411 33.1243 54.7338Z" fill="#DC2224"/>
<path d="M38.8524 46.1039C38.8524 47.1966 37.9666 48.0823 36.8739 48.0823C35.7813 48.0823 34.8955 47.1966 34.8955 46.1039C34.8955 45.0112 35.7813 44.1255 36.8739 44.1255C37.9666 44.1255 38.8524 45.0112 38.8524 46.1039Z" fill="#DC2224"/>
<path d="M59.0118 40.7738C59.0118 41.8665 58.126 42.7523 57.0334 42.7523C55.9407 42.7523 55.0549 41.8665 55.0549 40.7738C55.0549 39.6812 55.9407 38.7954 57.0334 38.7954C58.126 38.7954 59.0118 39.6812 59.0118 40.7738Z" fill="#DC2224"/>
<rect x="2" y="2" width="90" height="90" stroke="white" stroke-width="4"/>
<mask id="path-20-inside-1_297_63" fill="white">
<path d="M0 61.4888H94V94H0V61.4888Z"/>
</mask>
<path d="M94 94V98H98V94H94ZM0 94H-4V98H0V94ZM90 61.4888V94H98V61.4888H90ZM94 90H0V98H94V90ZM4 94V61.4888H-4V94H4Z" fill="#CE2510" mask="url(#path-20-inside-1_297_63)"/>
<path d="M115.12 34.0001V22.4801H117.048V27.8241L121.648 22.4801H124.016L119.064 28.1281L124.352 34.0001H121.904L117.048 28.6241V34.0001H115.12Z" fill="white"/>
<path d="M130.206 34.2401C129.054 34.2401 128.068 33.9894 127.246 33.4881C126.425 32.9814 125.793 32.2774 125.35 31.3761C124.913 30.4747 124.694 29.4294 124.694 28.2401C124.694 27.0507 124.913 26.0054 125.35 25.1041C125.793 24.2027 126.425 23.5014 127.246 23.0001C128.068 22.4934 129.054 22.2401 130.206 22.2401C131.358 22.2401 132.345 22.4934 133.166 23.0001C133.993 23.5014 134.625 24.2027 135.062 25.1041C135.505 26.0054 135.726 27.0507 135.726 28.2401C135.726 29.4294 135.505 30.4747 135.062 31.3761C134.625 32.2774 133.993 32.9814 133.166 33.4881C132.345 33.9894 131.358 34.2401 130.206 34.2401ZM130.206 32.4241C130.98 32.4294 131.622 32.2587 132.134 31.9121C132.652 31.5654 133.038 31.0774 133.294 30.4481C133.556 29.8187 133.686 29.0827 133.686 28.2401C133.686 27.3974 133.556 26.6667 133.294 26.0481C133.038 25.4241 132.652 24.9387 132.134 24.5921C131.622 24.2454 130.98 24.0667 130.206 24.0561C129.433 24.0507 128.79 24.2214 128.278 24.5681C127.766 24.9147 127.38 25.4027 127.118 26.0321C126.862 26.6614 126.734 27.3974 126.734 28.2401C126.734 29.0827 126.862 29.8161 127.118 30.4401C127.374 31.0587 127.758 31.5414 128.27 31.8881C128.788 32.2347 129.433 32.4134 130.206 32.4241Z" fill="white"/>
<path d="M137.799 34.0001V22.4801H139.535L143.519 30.6401L147.503 22.4801H149.239V34.0001H147.439V26.6161L143.903 34.0001H143.135L139.607 26.6161V34.0001H137.799Z" fill="white"/>
<path d="M151.966 34.0001V22.4801H161.302V34.0001H159.374V24.2881H153.894V34.0001H151.966Z" fill="white"/>
<path d="M163.224 34.0001V32.3841C163.48 32.4001 163.696 32.3814 163.872 32.3281C164.048 32.2694 164.195 32.1601 164.312 32.0001C164.435 31.8347 164.542 31.6027 164.632 31.3041C164.723 31.0001 164.811 30.6187 164.896 30.1601C165.019 29.5041 165.12 28.8214 165.2 28.1121C165.286 27.3974 165.358 26.6961 165.416 26.0081C165.475 25.3147 165.52 24.6641 165.552 24.0561C165.584 23.4481 165.611 22.9227 165.632 22.4801H173.344V34.0001H171.416V24.2881H167.416C167.39 24.6454 167.358 25.0774 167.32 25.5841C167.288 26.0854 167.243 26.6294 167.184 27.2161C167.131 27.8027 167.062 28.4107 166.976 29.0401C166.896 29.6694 166.798 30.2881 166.68 30.8961C166.574 31.4507 166.446 31.9494 166.296 32.3921C166.147 32.8294 165.947 33.1921 165.696 33.4801C165.451 33.7627 165.128 33.9521 164.728 34.0481C164.334 34.1441 163.832 34.1281 163.224 34.0001Z" fill="white"/>
<path d="M176.067 34.0001V22.4801H183.507V24.2881H177.995V27.1281H182.547V28.9361H177.995V32.1921H183.507V34.0001H176.067Z" fill="white"/>
<path d="M185.906 34.0001V22.4801H187.834V27.8241L192.434 22.4801H194.802L189.85 28.1281L195.138 34.0001H192.69L187.834 28.6241V34.0001H185.906Z" fill="white"/>
<path d="M200.993 34.2401C199.841 34.2401 198.854 33.9894 198.033 33.4881C197.211 32.9814 196.579 32.2774 196.137 31.3761C195.699 30.4747 195.481 29.4294 195.481 28.2401C195.481 27.0507 195.699 26.0054 196.137 25.1041C196.579 24.2027 197.211 23.5014 198.033 23.0001C198.854 22.4934 199.841 22.2401 200.993 22.2401C202.321 22.2401 203.427 22.5734 204.313 23.2401C205.198 23.9014 205.819 24.7947 206.177 25.9201L204.233 26.4561C204.009 25.7041 203.627 25.1174 203.089 24.6961C202.55 24.2694 201.851 24.0561 200.993 24.0561C200.219 24.0561 199.574 24.2294 199.057 24.5761C198.545 24.9227 198.158 25.4107 197.897 26.0401C197.641 26.6641 197.51 27.3974 197.505 28.2401C197.505 29.0827 197.633 29.8187 197.889 30.4481C198.15 31.0721 198.539 31.5574 199.057 31.9041C199.574 32.2507 200.219 32.4241 200.993 32.4241C201.851 32.4241 202.55 32.2107 203.089 31.7841C203.627 31.3574 204.009 30.7707 204.233 30.0241L206.177 30.5601C205.819 31.6854 205.198 32.5814 204.313 33.2481C203.427 33.9094 202.321 34.2401 200.993 34.2401Z" fill="white"/>
<path d="M208.413 34.0001V22.4801H210.341V27.3281H215.797V22.4801H217.717V34.0001H215.797V29.1361H210.341V34.0001H208.413Z" fill="white"/>
<path d="M220.424 34.0001V22.4801H222.352V26.5041H225.184C225.291 26.5041 225.435 26.5094 225.616 26.5201C225.797 26.5254 225.963 26.5414 226.112 26.5681C226.773 26.6694 227.32 26.8907 227.752 27.2321C228.189 27.5734 228.512 28.0054 228.72 28.5281C228.933 29.0454 229.04 29.6187 229.04 30.2481C229.04 30.8827 228.933 31.4614 228.72 31.9841C228.512 32.5014 228.189 32.9307 227.752 33.2721C227.32 33.6134 226.773 33.8347 226.112 33.9361C225.963 33.9574 225.797 33.9734 225.616 33.9841C225.44 33.9947 225.296 34.0001 225.184 34.0001H220.424ZM222.352 32.1921H225.104C225.216 32.1921 225.336 32.1867 225.464 32.1761C225.597 32.1654 225.723 32.1467 225.84 32.1201C226.155 32.0401 226.403 31.8987 226.584 31.6961C226.771 31.4934 226.901 31.2641 226.976 31.0081C227.056 30.7467 227.096 30.4934 227.096 30.2481C227.096 30.0027 227.056 29.7521 226.976 29.4961C226.901 29.2401 226.771 29.0107 226.584 28.8081C226.403 28.6054 226.155 28.4641 225.84 28.3841C225.723 28.3521 225.597 28.3307 225.464 28.3201C225.336 28.3094 225.216 28.3041 225.104 28.3041H222.352V32.1921ZM230.192 34.0001V22.4801H232.12V34.0001H230.192Z" fill="white"/>
<path d="M234.826 34.0001V22.4801H236.778V30.6001L242.122 22.4801H244.074V34.0001H242.122V25.8801L236.778 34.0001H234.826ZM239.442 21.5041C238.994 21.5041 238.586 21.3947 238.218 21.1761C237.856 20.9574 237.565 20.6667 237.346 20.3041C237.128 19.9361 237.018 19.5281 237.018 19.0801H238.522C238.522 19.3361 238.61 19.5547 238.786 19.7361C238.968 19.9121 239.186 20.0001 239.442 20.0001C239.698 20.0001 239.914 19.9121 240.09 19.7361C240.272 19.5547 240.362 19.3361 240.362 19.0801H241.866C241.866 19.5281 241.757 19.9361 241.538 20.3041C241.32 20.6667 241.026 20.9574 240.658 21.1761C240.29 21.3947 239.885 21.5041 239.442 21.5041Z" fill="white"/>
<path d="M250.474 34.0001V22.4801H255.234C255.346 22.4801 255.49 22.4854 255.666 22.4961C255.842 22.5014 256.005 22.5174 256.154 22.5441C256.821 22.6454 257.37 22.8667 257.802 23.2081C258.239 23.5494 258.562 23.9814 258.77 24.5041C258.983 25.0214 259.09 25.5974 259.09 26.2321C259.09 26.8614 258.983 27.4374 258.77 27.9601C258.557 28.4774 258.231 28.9067 257.794 29.2481C257.362 29.5894 256.815 29.8107 256.154 29.9121C256.005 29.9334 255.839 29.9494 255.658 29.9601C255.482 29.9707 255.341 29.9761 255.234 29.9761H252.402V34.0001H250.474ZM252.402 28.1761H255.154C255.261 28.1761 255.381 28.1707 255.514 28.1601C255.647 28.1494 255.77 28.1281 255.882 28.0961C256.202 28.0161 256.453 27.8747 256.634 27.6721C256.821 27.4694 256.951 27.2401 257.026 26.9841C257.106 26.7281 257.146 26.4774 257.146 26.2321C257.146 25.9867 257.106 25.7361 257.026 25.4801C256.951 25.2187 256.821 24.9867 256.634 24.7841C256.453 24.5814 256.202 24.4401 255.882 24.3601C255.77 24.3281 255.647 24.3094 255.514 24.3041C255.381 24.2934 255.261 24.2881 255.154 24.2881H252.402V28.1761Z" fill="white"/>
<path d="M261.173 34.0001V22.4801H268.613V24.2881H263.101V27.1281H267.653V28.9361H263.101V32.1921H268.613V34.0001H261.173Z" fill="white"/>
<path d="M271.012 34.0001V22.4801H272.748L276.732 30.6401L280.716 22.4801H282.452V34.0001H280.652V26.6161L277.116 34.0001H276.348L272.82 26.6161V34.0001H271.012Z" fill="white"/>
<path d="M290.051 34.2401C288.899 34.2401 287.913 33.9894 287.091 33.4881C286.27 32.9814 285.638 32.2774 285.195 31.3761C284.758 30.4747 284.539 29.4294 284.539 28.2401C284.539 27.0507 284.758 26.0054 285.195 25.1041C285.638 24.2027 286.27 23.5014 287.091 23.0001C287.913 22.4934 288.899 22.2401 290.051 22.2401C291.203 22.2401 292.19 22.4934 293.011 23.0001C293.838 23.5014 294.47 24.2027 294.907 25.1041C295.35 26.0054 295.571 27.0507 295.571 28.2401C295.571 29.4294 295.35 30.4747 294.907 31.3761C294.47 32.2774 293.838 32.9814 293.011 33.4881C292.19 33.9894 291.203 34.2401 290.051 34.2401ZM290.051 32.4241C290.825 32.4294 291.467 32.2587 291.979 31.9121C292.497 31.5654 292.883 31.0774 293.139 30.4481C293.401 29.8187 293.531 29.0827 293.531 28.2401C293.531 27.3974 293.401 26.6667 293.139 26.0481C292.883 25.4241 292.497 24.9387 291.979 24.5921C291.467 24.2454 290.825 24.0667 290.051 24.0561C289.278 24.0507 288.635 24.2214 288.123 24.5681C287.611 24.9147 287.225 25.4027 286.963 26.0321C286.707 26.6614 286.579 27.3974 286.579 28.2401C286.579 29.0827 286.707 29.8161 286.963 30.4401C287.219 31.0587 287.604 31.5414 288.115 31.8881C288.633 32.2347 289.278 32.4134 290.051 32.4241Z" fill="white"/>
<path d="M297.644 34.0001V22.4801H299.572V27.3281H305.028V22.4801H306.948V34.0001H305.028V29.1361H299.572V34.0001H297.644Z" fill="white"/>
<path d="M312.439 34.0001V24.2881H308.711V22.4801H318.095V24.2881H314.367V34.0001H312.439Z" fill="white"/>
<path d="M115.12 56.0001V44.4801H124.456V56.0001H122.528V46.2881H117.048V56.0001H115.12Z" fill="white"/>
<path d="M127.178 56.0001V44.4801H131.938C132.05 44.4801 132.194 44.4854 132.37 44.4961C132.546 44.5014 132.709 44.5174 132.858 44.5441C133.525 44.6454 134.074 44.8667 134.506 45.2081C134.944 45.5494 135.266 45.9814 135.474 46.5041C135.688 47.0214 135.794 47.5974 135.794 48.2321C135.794 48.8614 135.688 49.4374 135.474 49.9601C135.261 50.4774 134.936 50.9067 134.498 51.2481C134.066 51.5894 133.52 51.8107 132.858 51.9121C132.709 51.9334 132.544 51.9494 132.362 51.9601C132.186 51.9707 132.045 51.9761 131.938 51.9761H129.106V56.0001H127.178ZM129.106 50.1761H131.858C131.965 50.1761 132.085 50.1707 132.218 50.1601C132.352 50.1494 132.474 50.1281 132.586 50.0961C132.906 50.0161 133.157 49.8747 133.338 49.6721C133.525 49.4694 133.656 49.2401 133.73 48.9841C133.81 48.7281 133.85 48.4774 133.85 48.2321C133.85 47.9867 133.81 47.7361 133.73 47.4801C133.656 47.2187 133.525 46.9867 133.338 46.7841C133.157 46.5814 132.906 46.4401 132.586 46.3601C132.474 46.3281 132.352 46.3094 132.218 46.3041C132.085 46.2934 131.965 46.2881 131.858 46.2881H129.106V50.1761Z" fill="white"/>
<path d="M142.749 56.2401C141.597 56.2401 140.61 55.9894 139.789 55.4881C138.968 54.9814 138.336 54.2774 137.893 53.3761C137.456 52.4747 137.237 51.4294 137.237 50.2401C137.237 49.0507 137.456 48.0054 137.893 47.1041C138.336 46.2027 138.968 45.5014 139.789 45.0001C140.61 44.4934 141.597 44.2401 142.749 44.2401C143.901 44.2401 144.888 44.4934 145.709 45.0001C146.536 45.5014 147.168 46.2027 147.605 47.1041C148.048 48.0054 148.269 49.0507 148.269 50.2401C148.269 51.4294 148.048 52.4747 147.605 53.3761C147.168 54.2774 146.536 54.9814 145.709 55.4881C144.888 55.9894 143.901 56.2401 142.749 56.2401ZM142.749 54.4241C143.522 54.4294 144.165 54.2587 144.677 53.9121C145.194 53.5654 145.581 53.0774 145.837 52.4481C146.098 51.8187 146.229 51.0827 146.229 50.2401C146.229 49.3974 146.098 48.6667 145.837 48.0481C145.581 47.4241 145.194 46.9387 144.677 46.5921C144.165 46.2454 143.522 46.0667 142.749 46.0561C141.976 46.0507 141.333 46.2214 140.821 46.5681C140.309 46.9147 139.922 47.4027 139.661 48.0321C139.405 48.6614 139.277 49.3974 139.277 50.2401C139.277 51.0827 139.405 51.8161 139.661 52.4401C139.917 53.0587 140.301 53.5414 140.813 53.8881C141.33 54.2347 141.976 54.4134 142.749 54.4241Z" fill="white"/>
<path d="M150.341 56.0001V44.4801H152.077L156.061 52.6401L160.045 44.4801H161.781V56.0001H159.981V48.6161L156.445 56.0001H155.677L152.149 48.6161V56.0001H150.341Z" fill="white"/>
<path d="M164.493 56.0001V44.4801H166.421V48.5041H169.253C169.36 48.5041 169.504 48.5094 169.685 48.5201C169.866 48.5254 170.032 48.5414 170.181 48.5681C170.842 48.6694 171.389 48.8907 171.821 49.2321C172.258 49.5734 172.581 50.0054 172.789 50.5281C173.002 51.0454 173.109 51.6187 173.109 52.2481C173.109 52.8827 173.002 53.4614 172.789 53.9841C172.581 54.5014 172.258 54.9307 171.821 55.2721C171.389 55.6134 170.842 55.8347 170.181 55.9361C170.032 55.9574 169.866 55.9734 169.685 55.9841C169.509 55.9947 169.365 56.0001 169.253 56.0001H164.493ZM166.421 54.1921H169.173C169.285 54.1921 169.405 54.1867 169.533 54.1761C169.666 54.1654 169.792 54.1467 169.909 54.1201C170.224 54.0401 170.472 53.8987 170.653 53.6961C170.84 53.4934 170.97 53.2641 171.045 53.0081C171.125 52.7467 171.165 52.4934 171.165 52.2481C171.165 52.0027 171.125 51.7521 171.045 51.4961C170.97 51.2401 170.84 51.0107 170.653 50.8081C170.472 50.6054 170.224 50.4641 169.909 50.3841C169.792 50.3521 169.666 50.3307 169.533 50.3201C169.405 50.3094 169.285 50.3041 169.173 50.3041H166.421V54.1921ZM174.261 56.0001V44.4801H176.189V56.0001H174.261Z" fill="white"/>
<path d="M178.895 56.0001V44.4801H180.823V54.1921H184.383V44.4801H186.311V54.1921H189.879V44.4801H191.799V56.0001H178.895Z" fill="white"/>
<path d="M193.716 56.0001V54.3841C193.972 54.4001 194.188 54.3814 194.364 54.3281C194.54 54.2694 194.686 54.1601 194.804 54.0001C194.926 53.8347 195.033 53.6027 195.124 53.3041C195.214 53.0001 195.302 52.6187 195.388 52.1601C195.51 51.5041 195.612 50.8214 195.692 50.1121C195.777 49.3974 195.849 48.6961 195.908 48.0081C195.966 47.3147 196.012 46.6641 196.044 46.0561C196.076 45.4481 196.102 44.9227 196.124 44.4801H203.836V56.0001H201.908V46.2881H197.908C197.881 46.6454 197.849 47.0774 197.812 47.5841C197.78 48.0854 197.734 48.6294 197.676 49.2161C197.622 49.8027 197.553 50.4107 197.468 51.0401C197.388 51.6694 197.289 52.2881 197.172 52.8961C197.065 53.4507 196.937 53.9494 196.788 54.3921C196.638 54.8294 196.438 55.1921 196.188 55.4801C195.942 55.7627 195.62 55.9521 195.22 56.0481C194.825 56.1441 194.324 56.1281 193.716 56.0001Z" fill="white"/>
<path d="M206.558 56.0001V44.4801H213.998V46.2881H208.486V49.1281H213.038V50.9361H208.486V54.1921H213.998V56.0001H206.558Z" fill="white"/>
<path d="M216.398 56.0001V44.4801H218.326V49.3281H223.782V44.4801H225.702V56.0001H223.782V51.1361H218.326V56.0001H216.398Z" fill="white"/>
<path d="M228.424 56.0001V44.4801H230.352V49.3281H235.808V44.4801H237.728V56.0001H235.808V51.1361H230.352V56.0001H228.424Z" fill="white"/>
<path d="M245.323 56.2401C244.171 56.2401 243.185 55.9894 242.363 55.4881C241.542 54.9814 240.91 54.2774 240.467 53.3761C240.03 52.4747 239.811 51.4294 239.811 50.2401C239.811 49.0507 240.03 48.0054 240.467 47.1041C240.91 46.2027 241.542 45.5014 242.363 45.0001C243.185 44.4934 244.171 44.2401 245.323 44.2401C246.475 44.2401 247.462 44.4934 248.283 45.0001C249.11 45.5014 249.742 46.2027 250.179 47.1041C250.622 48.0054 250.843 49.0507 250.843 50.2401C250.843 51.4294 250.622 52.4747 250.179 53.3761C249.742 54.2774 249.11 54.9814 248.283 55.4881C247.462 55.9894 246.475 56.2401 245.323 56.2401ZM245.323 54.4241C246.097 54.4294 246.739 54.2587 247.251 53.9121C247.769 53.5654 248.155 53.0774 248.411 52.4481C248.673 51.8187 248.803 51.0827 248.803 50.2401C248.803 49.3974 248.673 48.6667 248.411 48.0481C248.155 47.4241 247.769 46.9387 247.251 46.5921C246.739 46.2454 246.097 46.0667 245.323 46.0561C244.55 46.0507 243.907 46.2214 243.395 46.5681C242.883 46.9147 242.497 47.4027 242.235 48.0321C241.979 48.6614 241.851 49.3974 241.851 50.2401C241.851 51.0827 241.979 51.8161 242.235 52.4401C242.491 53.0587 242.875 53.5414 243.387 53.8881C243.905 54.2347 244.55 54.4134 245.323 54.4241Z" fill="white"/>
<path d="M252.916 56.0001V44.4801H254.868V52.6001L260.212 44.4801H262.164V56.0001H260.212V47.8801L254.868 56.0001H252.916ZM257.532 43.5041C257.084 43.5041 256.676 43.3947 256.308 43.1761C255.945 42.9574 255.654 42.6667 255.436 42.3041C255.217 41.9361 255.108 41.5281 255.108 41.0801H256.612C256.612 41.3361 256.7 41.5547 256.876 41.7361C257.057 41.9121 257.276 42.0001 257.532 42.0001C257.788 42.0001 258.004 41.9121 258.18 41.7361C258.361 41.5547 258.452 41.3361 258.452 41.0801H259.956C259.956 41.5281 259.846 41.9361 259.628 42.3041C259.409 42.6667 259.116 42.9574 258.748 43.1761C258.38 43.3947 257.974 43.5041 257.532 43.5041Z" fill="white"/>
<path d="M273.083 56.2401C272.225 56.2401 271.457 56.1067 270.779 55.8401C270.102 55.5681 269.529 55.1627 269.059 54.6241C268.59 54.0801 268.238 53.4054 268.003 52.6001L269.891 52.1281C270.105 52.8107 270.481 53.3654 271.019 53.7921C271.558 54.2187 272.206 54.4294 272.963 54.4241C273.491 54.4134 273.99 54.3094 274.459 54.1121C274.934 53.9147 275.321 53.6107 275.619 53.2001C275.859 52.8961 276.035 52.5707 276.147 52.2241C276.259 51.8721 276.337 51.5094 276.379 51.1361H272.299V49.3281H276.395C276.31 48.6774 276.123 48.1067 275.835 47.6161C275.547 47.1201 275.161 46.7361 274.675 46.4641C274.195 46.1867 273.625 46.0534 272.963 46.0641C272.174 46.0694 271.507 46.2881 270.963 46.7201C270.419 47.1521 270.049 47.7361 269.851 48.4721L267.923 48.2001C268.211 46.9414 268.803 45.9681 269.699 45.2801C270.595 44.5867 271.723 44.2401 273.083 44.2401C274.198 44.2401 275.155 44.4934 275.955 45.0001C276.761 45.5014 277.379 46.2027 277.811 47.1041C278.249 48.0054 278.47 49.0507 278.475 50.2401C278.481 51.3601 278.27 52.3734 277.843 53.2801C277.417 54.1867 276.798 54.9067 275.987 55.4401C275.182 55.9734 274.214 56.2401 273.083 56.2401Z" fill="white"/>
<path d="M279.446 56.0001V54.3841C279.702 54.4001 279.918 54.3814 280.094 54.3281C280.27 54.2694 280.417 54.1601 280.534 54.0001C280.657 53.8347 280.764 53.6027 280.854 53.3041C280.945 53.0001 281.033 52.6187 281.118 52.1601C281.241 51.5041 281.342 50.8214 281.422 50.1121C281.508 49.3974 281.58 48.6961 281.638 48.0081C281.697 47.3147 281.742 46.6641 281.774 46.0561C281.806 45.4481 281.833 44.9227 281.854 44.4801H289.566V56.0001H287.638V46.2881H283.638C283.612 46.6454 283.58 47.0774 283.542 47.5841C283.51 48.0854 283.465 48.6294 283.406 49.2161C283.353 49.8027 283.284 50.4107 283.198 51.0401C283.118 51.6694 283.02 52.2881 282.902 52.8961C282.796 53.4507 282.668 53.9494 282.518 54.3921C282.369 54.8294 282.169 55.1921 281.918 55.4801C281.673 55.7627 281.35 55.9521 280.95 56.0481C280.556 56.1441 280.054 56.1281 279.446 56.0001Z" fill="white"/>
<path d="M292.289 56.0001V44.4801H299.729V46.2881H294.217V49.1281H298.769V50.9361H294.217V54.1921H299.729V56.0001H292.289Z" fill="white"/>
<path d="M302.128 56.0001V44.4801H304.056V49.8241L308.656 44.4801H311.024L306.072 50.1281L311.36 56.0001H308.912L304.056 50.6241V56.0001H302.128Z" fill="white"/>
<path d="M315.736 56.0001V46.2881H312.008V44.4801H321.392V46.2881H317.664V56.0001H315.736Z" fill="white"/>
<path d="M323.151 56.0001V44.4801H327.911C328.023 44.4801 328.167 44.4854 328.343 44.4961C328.519 44.5014 328.681 44.5174 328.831 44.5441C329.497 44.6454 330.047 44.8667 330.479 45.2081C330.916 45.5494 331.239 45.9814 331.447 46.5041C331.66 47.0214 331.767 47.5974 331.767 48.2321C331.767 48.8614 331.66 49.4374 331.447 49.9601C331.233 50.4774 330.908 50.9067 330.471 51.2481C330.039 51.5894 329.492 51.8107 328.831 51.9121C328.681 51.9334 328.516 51.9494 328.335 51.9601C328.159 51.9707 328.017 51.9761 327.911 51.9761H325.079V56.0001H323.151ZM325.079 50.1761H327.831C327.937 50.1761 328.057 50.1707 328.191 50.1601C328.324 50.1494 328.447 50.1281 328.559 50.0961C328.879 50.0161 329.129 49.8747 329.311 49.6721C329.497 49.4694 329.628 49.2401 329.703 48.9841C329.783 48.7281 329.823 48.4774 329.823 48.2321C329.823 47.9867 329.783 47.7361 329.703 47.4801C329.628 47.2187 329.497 46.9867 329.311 46.7841C329.129 46.5814 328.879 46.4401 328.559 46.3601C328.447 46.3281 328.324 46.3094 328.191 46.3041C328.057 46.2934 327.937 46.2881 327.831 46.2881H325.079V50.1761Z" fill="white"/>
<path d="M338.721 56.2401C337.569 56.2401 336.583 55.9894 335.761 55.4881C334.94 54.9814 334.308 54.2774 333.865 53.3761C333.428 52.4747 333.209 51.4294 333.209 50.2401C333.209 49.0507 333.428 48.0054 333.865 47.1041C334.308 46.2027 334.94 45.5014 335.761 45.0001C336.583 44.4934 337.569 44.2401 338.721 44.2401C339.873 44.2401 340.86 44.4934 341.681 45.0001C342.508 45.5014 343.14 46.2027 343.577 47.1041C344.02 48.0054 344.241 49.0507 344.241 50.2401C344.241 51.4294 344.02 52.4747 343.577 53.3761C343.14 54.2774 342.508 54.9814 341.681 55.4881C340.86 55.9894 339.873 56.2401 338.721 56.2401ZM338.721 54.4241C339.495 54.4294 340.137 54.2587 340.649 53.9121C341.167 53.5654 341.553 53.0774 341.809 52.4481C342.071 51.8187 342.201 51.0827 342.201 50.2401C342.201 49.3974 342.071 48.6667 341.809 48.0481C341.553 47.4241 341.167 46.9387 340.649 46.5921C340.137 46.2454 339.495 46.0667 338.721 46.0561C337.948 46.0507 337.305 46.2214 336.793 46.5681C336.281 46.9147 335.895 47.4027 335.633 48.0321C335.377 48.6614 335.249 49.3974 335.249 50.2401C335.249 51.0827 335.377 51.8161 335.633 52.4401C335.889 53.0587 336.273 53.5414 336.785 53.8881C337.303 54.2347 337.948 54.4134 338.721 54.4241Z" fill="white"/>
<path d="M346.314 56.0001V44.4801H348.242V49.3281H353.698V44.4801H355.618V56.0001H353.698V51.1361H348.242V56.0001H346.314Z" fill="white"/>
<path d="M367.589 56.0001H365.637V47.8801L360.293 56.0001H358.341V44.4801H360.293V52.6001L365.637 44.4801H367.589V56.0001Z" fill="white"/>
<path d="M370.305 56.0001V44.4801H372.233V49.8241L376.833 44.4801H379.201L374.249 50.1281L379.537 56.0001H377.089L372.233 50.6241V56.0001H370.305Z" fill="white"/>
<path d="M390.392 56.0001H388.44V47.8801L383.096 56.0001H381.145V44.4801H383.096V52.6001L388.44 44.4801H390.392V56.0001Z" fill="white"/>
<path d="M115.12 78.0001V66.4801H117.048V71.3281H122.504V66.4801H124.424V78.0001H122.504V73.1361H117.048V78.0001H115.12Z" fill="white"/>
<path d="M126.347 78.0001L129.979 66.4801H132.803L136.435 78.0001H134.451L131.155 67.6641H131.587L128.331 78.0001H126.347ZM128.371 75.5041V73.7041H134.419V75.5041H128.371Z" fill="white"/>
<path d="M142.044 78.0001V66.4801H143.972V71.8241L148.572 66.4801H150.94L145.988 72.1281L151.276 78.0001H148.828L143.972 72.6241V78.0001H142.044Z" fill="white"/>
<path d="M157.131 78.2401C155.979 78.2401 154.992 77.9894 154.171 77.4881C153.35 76.9814 152.718 76.2774 152.275 75.3761C151.838 74.4747 151.619 73.4294 151.619 72.2401C151.619 71.0507 151.838 70.0054 152.275 69.1041C152.718 68.2027 153.35 67.5014 154.171 67.0001C154.992 66.4934 155.979 66.2401 157.131 66.2401C158.283 66.2401 159.27 66.4934 160.091 67.0001C160.918 67.5014 161.55 68.2027 161.987 69.1041C162.43 70.0054 162.651 71.0507 162.651 72.2401C162.651 73.4294 162.43 74.4747 161.987 75.3761C161.55 76.2774 160.918 76.9814 160.091 77.4881C159.27 77.9894 158.283 78.2401 157.131 78.2401ZM157.131 76.4241C157.904 76.4294 158.547 76.2587 159.059 75.9121C159.576 75.5654 159.963 75.0774 160.219 74.4481C160.48 73.8187 160.611 73.0827 160.611 72.2401C160.611 71.3974 160.48 70.6667 160.219 70.0481C159.963 69.4241 159.576 68.9387 159.059 68.5921C158.547 68.2454 157.904 68.0667 157.131 68.0561C156.358 68.0507 155.715 68.2214 155.203 68.5681C154.691 68.9147 154.304 69.4027 154.043 70.0321C153.787 70.6614 153.659 71.3974 153.659 72.2401C153.659 73.0827 153.787 73.8161 154.043 74.4401C154.299 75.0587 154.683 75.5414 155.195 75.8881C155.712 76.2347 156.358 76.4134 157.131 76.4241Z" fill="white"/>
<path d="M164.723 78.0001V66.4801H166.459L170.443 74.6401L174.427 66.4801H176.163V78.0001H174.363V70.6161L170.827 78.0001H170.059L166.531 70.6161V78.0001H164.723Z" fill="white"/>
<path d="M178.891 78.0001V66.4801H188.227V78.0001H186.299V68.2881H180.819V78.0001H178.891Z" fill="white"/>
<path d="M195.821 78.2401C194.669 78.2401 193.682 77.9894 192.861 77.4881C192.04 76.9814 191.408 76.2774 190.965 75.3761C190.528 74.4747 190.309 73.4294 190.309 72.2401C190.309 71.0507 190.528 70.0054 190.965 69.1041C191.408 68.2027 192.04 67.5014 192.861 67.0001C193.682 66.4934 194.669 66.2401 195.821 66.2401C196.973 66.2401 197.96 66.4934 198.781 67.0001C199.608 67.5014 200.24 68.2027 200.677 69.1041C201.12 70.0054 201.341 71.0507 201.341 72.2401C201.341 73.4294 201.12 74.4747 200.677 75.3761C200.24 76.2774 199.608 76.9814 198.781 77.4881C197.96 77.9894 196.973 78.2401 195.821 78.2401ZM195.821 76.4241C196.594 76.4294 197.237 76.2587 197.749 75.9121C198.266 75.5654 198.653 75.0774 198.909 74.4481C199.17 73.8187 199.301 73.0827 199.301 72.2401C199.301 71.3974 199.17 70.6667 198.909 70.0481C198.653 69.4241 198.266 68.9387 197.749 68.5921C197.237 68.2454 196.594 68.0667 195.821 68.0561C195.048 68.0507 194.405 68.2214 193.893 68.5681C193.381 68.9147 192.994 69.4027 192.733 70.0321C192.477 70.6614 192.349 71.3974 192.349 72.2401C192.349 73.0827 192.477 73.8161 192.733 74.4401C192.989 75.0587 193.373 75.5414 193.885 75.8881C194.402 76.2347 195.048 76.4134 195.821 76.4241Z" fill="white"/>
<path d="M203.413 78.0001V66.4801H205.341V71.3281H210.797V66.4801H212.717V78.0001H210.797V73.1361H205.341V78.0001H203.413Z" fill="white"/>
<path d="M215.44 78.0001V66.4801H222.88V68.2881H217.368V71.1281H221.92V72.9361H217.368V76.1921H222.88V78.0001H215.44Z" fill="white"/>
<path d="M225.279 78.0001V66.4801H227.207V71.3281H232.663V66.4801H234.583V78.0001H232.663V73.1361H227.207V78.0001H225.279Z" fill="white"/>
<path d="M240.074 78.0001V68.2881H236.346V66.4801H245.73V68.2881H242.002V78.0001H240.074Z" fill="white"/>
<path d="M247.489 78.0001V66.4801H249.417V71.3281H254.873V66.4801H256.793V78.0001H254.873V73.1361H249.417V78.0001H247.489Z" fill="white"/>
<path d="M264.388 78.2401C263.236 78.2401 262.25 77.9894 261.428 77.4881C260.607 76.9814 259.975 76.2774 259.532 75.3761C259.095 74.4747 258.876 73.4294 258.876 72.2401C258.876 71.0507 259.095 70.0054 259.532 69.1041C259.975 68.2027 260.607 67.5014 261.428 67.0001C262.25 66.4934 263.236 66.2401 264.388 66.2401C265.54 66.2401 266.527 66.4934 267.348 67.0001C268.175 67.5014 268.807 68.2027 269.244 69.1041C269.687 70.0054 269.908 71.0507 269.908 72.2401C269.908 73.4294 269.687 74.4747 269.244 75.3761C268.807 76.2774 268.175 76.9814 267.348 77.4881C266.527 77.9894 265.54 78.2401 264.388 78.2401ZM264.388 76.4241C265.162 76.4294 265.804 76.2587 266.316 75.9121C266.834 75.5654 267.22 75.0774 267.476 74.4481C267.738 73.8187 267.868 73.0827 267.868 72.2401C267.868 71.3974 267.738 70.6667 267.476 70.0481C267.22 69.4241 266.834 68.9387 266.316 68.5921C265.804 68.2454 265.162 68.0667 264.388 68.0561C263.615 68.0507 262.972 68.2214 262.46 68.5681C261.948 68.9147 261.562 69.4027 261.3 70.0321C261.044 70.6614 260.916 71.3974 260.916 72.2401C260.916 73.0827 261.044 73.8161 261.3 74.4401C261.556 75.0587 261.94 75.5414 262.452 75.8881C262.97 76.2347 263.615 76.4134 264.388 76.4241Z" fill="white"/>
<path d="M271.981 78.0001V66.4801H273.717L277.701 74.6401L281.685 66.4801H283.421V78.0001H281.621V70.6161L278.085 78.0001H277.317L273.789 70.6161V78.0001H271.981Z" fill="white"/>
<path d="M291.351 78.0001L292.871 74.8961L288.895 66.4801H291.071L293.879 72.8641L296.775 66.4801H298.831L293.407 78.0001H291.351Z" fill="white"/>
<path d="M300.499 78.0001V66.4801H305.259C305.371 66.4801 305.515 66.4854 305.691 66.4961C305.867 66.5014 306.03 66.5174 306.179 66.5441C306.846 66.6454 307.395 66.8667 307.827 67.2081C308.264 67.5494 308.587 67.9814 308.795 68.5041C309.008 69.0214 309.115 69.5974 309.115 70.2321C309.115 70.8614 309.008 71.4374 308.795 71.9601C308.582 72.4774 308.256 72.9067 307.819 73.2481C307.387 73.5894 306.84 73.8107 306.179 73.9121C306.03 73.9334 305.864 73.9494 305.683 73.9601C305.507 73.9707 305.366 73.9761 305.259 73.9761H302.427V78.0001H300.499ZM302.427 72.1761H305.179C305.286 72.1761 305.406 72.1707 305.539 72.1601C305.672 72.1494 305.795 72.1281 305.907 72.0961C306.227 72.0161 306.478 71.8747 306.659 71.6721C306.846 71.4694 306.976 71.2401 307.051 70.9841C307.131 70.7281 307.171 70.4774 307.171 70.2321C307.171 69.9867 307.131 69.7361 307.051 69.4801C306.976 69.2187 306.846 68.9867 306.659 68.7841C306.478 68.5814 306.227 68.4401 305.907 68.3601C305.795 68.3281 305.672 68.3094 305.539 68.3041C305.406 68.2934 305.286 68.2881 305.179 68.2881H302.427V72.1761Z" fill="white"/>
<path d="M316.07 78.2401C314.918 78.2401 313.931 77.9894 313.11 77.4881C312.288 76.9814 311.656 76.2774 311.214 75.3761C310.776 74.4747 310.558 73.4294 310.558 72.2401C310.558 71.0507 310.776 70.0054 311.214 69.1041C311.656 68.2027 312.288 67.5014 313.11 67.0001C313.931 66.4934 314.918 66.2401 316.07 66.2401C317.222 66.2401 318.208 66.4934 319.03 67.0001C319.856 67.5014 320.488 68.2027 320.926 69.1041C321.368 70.0054 321.59 71.0507 321.59 72.2401C321.59 73.4294 321.368 74.4747 320.926 75.3761C320.488 76.2774 319.856 76.9814 319.03 77.4881C318.208 77.9894 317.222 78.2401 316.07 78.2401ZM316.07 76.4241C316.843 76.4294 317.486 76.2587 317.998 75.9121C318.515 75.5654 318.902 75.0774 319.158 74.4481C319.419 73.8187 319.55 73.0827 319.55 72.2401C319.55 71.3974 319.419 70.6667 319.158 70.0481C318.902 69.4241 318.515 68.9387 317.998 68.5921C317.486 68.2454 316.843 68.0667 316.07 68.0561C315.296 68.0507 314.654 68.2214 314.142 68.5681C313.63 68.9147 313.243 69.4027 312.982 70.0321C312.726 70.6614 312.598 71.3974 312.598 72.2401C312.598 73.0827 312.726 73.8161 312.982 74.4401C313.238 75.0587 313.622 75.5414 314.134 75.8881C314.651 76.2347 315.296 76.4134 316.07 76.4241Z" fill="white"/>
<path d="M323.662 78.0001V66.4801H328.23C329.009 66.4801 329.646 66.6374 330.142 66.9521C330.643 67.2614 331.014 67.6587 331.254 68.1441C331.499 68.6294 331.622 69.1307 331.622 69.6481C331.622 70.2827 331.47 70.8214 331.166 71.2641C330.867 71.7067 330.459 72.0054 329.942 72.1601V71.7601C330.667 71.9254 331.217 72.2694 331.59 72.7921C331.969 73.3147 332.158 73.9094 332.158 74.5761C332.158 75.2587 332.027 75.8561 331.766 76.3681C331.505 76.8801 331.115 77.2801 330.598 77.5681C330.086 77.8561 329.451 78.0001 328.694 78.0001H323.662ZM325.614 76.1841H328.454C328.79 76.1841 329.091 76.1174 329.358 75.9841C329.625 75.8454 329.833 75.6534 329.982 75.4081C330.137 75.1574 330.214 74.8614 330.214 74.5201C330.214 74.2107 330.147 73.9334 330.014 73.6881C329.881 73.4427 329.686 73.2481 329.43 73.1041C329.174 72.9547 328.867 72.8801 328.51 72.8801H325.614V76.1841ZM325.614 71.0801H328.206C328.483 71.0801 328.731 71.0267 328.95 70.9201C329.169 70.8134 329.342 70.6561 329.47 70.4481C329.598 70.2401 329.662 69.9841 329.662 69.6801C329.662 69.2801 329.534 68.9467 329.278 68.6801C329.022 68.4134 328.665 68.2801 328.206 68.2801H325.614V71.0801Z" fill="white"/>
<path d="M334.236 78.0001V66.4801H336.164V71.3281H341.62V66.4801H343.54V78.0001H341.62V73.1361H336.164V78.0001H334.236Z" fill="white"/>
<path d="M346.263 78.0001V66.4801H353.703V68.2881H348.191V71.1281H352.743V72.9361H348.191V76.1921H353.703V78.0001H346.263Z" fill="white"/>
</svg>
